<svg id="svg" version="1.1" xmlns="http://www.w3.org/2000/svg" xmlns:xlink="http://www.w3.org/1999/xlink" width="400" height="225" viewBox="0, 0, 400,225"><g id="svgg"><path id="path0" d="M184.933 10.238 C 184.695 10.644,184.500 11.056,184.500 11.155 C 184.500 11.253,184.425 11.333,184.333 11.333 C 184.242 11.333,184.167 11.435,184.167 11.559 C 184.167 11.682,183.978 12.132,183.747 12.557 C 183.516 12.982,183.141 13.672,182.913 14.090 C 182.686 14.509,182.500 14.960,182.500 15.092 C 182.500 15.225,182.441 15.333,182.368 15.333 C 182.295 15.333,182.120 15.577,181.978 15.875 C 181.835 16.173,181.319 17.167,180.829 18.083 C 180.340 19.000,179.825 19.994,179.685 20.292 C 179.545 20.590,179.371 20.833,179.299 20.833 C 179.226 20.833,179.167 20.942,179.167 21.075 C 179.167 21.207,178.969 21.676,178.728 22.116 C 178.486 22.556,177.933 23.592,177.499 24.417 C 176.212 26.864,176.089 27.081,175.958 27.139 C 175.890 27.169,175.833 27.295,175.833 27.417 C 175.833 27.627,175.350 28.651,175.165 28.833 C 175.119 28.879,174.699 29.667,174.232 30.583 C 173.765 31.500,172.997 32.981,172.525 33.875 C 171.729 35.383,171.284 36.227,169.170 40.250 C 168.736 41.075,167.978 42.537,167.486 43.500 C 166.993 44.462,166.539 45.288,166.477 45.334 C 166.414 45.380,166.231 45.755,166.068 46.167 C 165.906 46.579,165.724 46.954,165.665 47.000 C 165.606 47.046,165.442 47.308,165.302 47.583 C 165.162 47.858,164.674 48.796,164.217 49.667 C 163.761 50.538,163.250 51.512,163.082 51.833 C 162.914 52.154,162.700 52.567,162.607 52.750 C 162.176 53.595,161.623 54.599,161.504 54.750 C 161.433 54.842,161.319 55.097,161.251 55.317 C 161.183 55.537,160.901 56.100,160.624 56.567 C 160.346 57.034,159.780 58.092,159.364 58.917 C 158.949 59.742,158.562 60.454,158.504 60.500 C 158.447 60.546,158.268 60.883,158.108 61.250 C 157.948 61.617,157.743 62.051,157.653 62.216 C 156.898 63.586,156.323 64.675,156.027 65.292 C 155.950 65.452,155.675 65.958,155.416 66.417 C 155.158 66.875,154.841 67.475,154.712 67.750 C 154.584 68.025,154.398 68.397,154.299 68.577 C 154.200 68.757,153.933 69.244,153.705 69.660 C 153.477 70.076,153.183 70.642,153.051 70.917 C 152.920 71.192,152.731 71.564,152.632 71.744 C 151.830 73.206,151.433 73.950,150.940 74.917 C 150.847 75.100,150.586 75.587,150.361 76.000 C 149.573 77.442,149.502 77.584,149.501 77.724 C 149.500 77.802,149.337 78.094,149.138 78.373 L 148.776 78.882 149.122 79.566 C 149.312 79.942,149.580 80.475,149.717 80.750 C 150.544 82.411,152.078 85.297,152.426 85.848 C 152.650 86.203,152.833 86.592,152.833 86.713 C 152.833 86.834,152.900 87.005,152.982 87.092 C 153.153 87.274,153.830 88.527,154.914 90.667 C 156.058 92.926,157.235 95.120,157.521 95.526 C 157.693 95.769,157.833 96.071,157.833 96.197 C 157.833 96.323,157.951 96.594,158.096 96.801 C 158.240 97.007,158.849 98.130,159.449 99.296 C 160.049 100.462,160.671 101.604,160.832 101.833 C 160.993 102.063,161.178 102.494,161.243 102.792 C 161.307 103.090,161.422 103.333,161.498 103.333 C 161.573 103.333,161.843 103.783,162.097 104.333 C 162.351 104.883,162.620 105.333,162.696 105.333 C 162.772 105.333,162.834 105.465,162.835 105.625 C 162.836 105.785,163.035 106.254,163.276 106.667 C 163.517 107.079,164.387 108.729,165.208 110.333 C 166.030 111.938,166.750 113.287,166.809 113.333 C 166.868 113.379,167.270 114.129,167.701 115.000 C 168.133 115.871,168.636 116.846,168.820 117.167 C 169.004 117.487,169.336 118.125,169.558 118.583 C 169.780 119.042,170.468 120.354,171.087 121.500 C 172.472 124.065,173.000 125.119,173.000 125.319 C 173.000 125.403,173.056 125.497,173.125 125.528 C 173.194 125.558,173.655 126.371,174.149 127.333 C 174.644 128.296,175.422 129.796,175.879 130.667 C 176.335 131.537,177.082 132.962,177.538 133.833 C 180.004 138.545,181.536 141.449,182.054 142.400 C 182.299 142.849,182.500 143.318,182.500 143.441 C 182.500 143.565,182.559 143.667,182.630 143.667 C 182.702 143.667,182.847 143.873,182.953 144.125 C 183.059 144.377,183.359 144.958,183.620 145.417 C 183.881 145.875,184.242 146.587,184.422 147.000 C 185.042 148.421,184.701 148.333,189.605 148.333 L 193.969 148.333 194.457 147.375 C 194.725 146.848,195.332 145.685,195.806 144.792 C 196.279 143.898,197.042 142.454,197.500 141.583 C 197.958 140.712,198.708 139.287,199.167 138.417 C 201.073 134.794,201.648 133.709,202.063 132.950 C 202.303 132.509,202.500 132.040,202.500 131.908 C 202.500 131.775,202.559 131.667,202.632 131.667 C 202.705 131.667,202.881 131.423,203.024 131.125 C 203.276 130.599,204.628 128.013,205.267 126.833 C 205.441 126.513,205.640 126.225,205.708 126.194 C 205.777 126.164,205.833 126.044,205.833 125.928 C 205.833 125.811,206.021 125.368,206.250 124.941 C 206.479 124.515,206.854 123.818,207.083 123.392 C 207.313 122.966,207.500 122.522,207.500 122.406 C 207.500 122.290,207.556 122.169,207.625 122.139 C 207.760 122.079,207.942 121.757,209.212 119.333 C 211.299 115.351,211.713 114.562,212.516 113.040 C 212.987 112.147,213.725 110.742,214.156 109.917 C 214.587 109.092,215.336 107.667,215.821 106.750 C 216.306 105.833,217.087 104.333,217.556 103.417 C 218.026 102.500,218.461 101.712,218.523 101.666 C 218.586 101.620,218.769 101.245,218.932 100.833 C 219.094 100.421,219.270 100.046,219.322 100.000 C 219.374 99.954,219.558 99.654,219.730 99.333 C 220.223 98.415,221.621 95.747,222.612 93.833 C 223.111 92.871,223.587 91.971,223.670 91.833 C 223.753 91.696,223.964 91.283,224.138 90.917 C 224.312 90.550,224.961 89.313,225.579 88.167 C 226.198 87.021,226.813 85.858,226.946 85.583 C 227.079 85.308,227.272 84.933,227.374 84.750 C 227.477 84.567,228.008 83.555,228.554 82.501 C 229.100 81.448,229.724 80.306,229.940 79.963 C 230.413 79.213,230.434 78.781,230.026 78.192 C 229.726 77.759,229.429 77.211,228.906 76.125 C 228.763 75.827,228.561 75.433,228.458 75.250 C 228.266 74.910,227.684 73.832,227.375 73.244 C 227.280 73.064,227.119 72.729,227.017 72.500 C 226.915 72.271,226.609 71.708,226.337 71.250 C 226.064 70.792,225.728 70.154,225.589 69.833 C 225.450 69.512,225.262 69.137,225.171 69.000 C 225.079 68.862,224.634 68.037,224.182 67.167 C 223.729 66.296,223.024 64.946,222.613 64.167 C 220.429 60.019,219.869 58.954,219.154 57.583 C 218.723 56.758,218.072 55.521,217.708 54.833 C 217.344 54.146,216.833 53.171,216.573 52.667 C 216.313 52.163,216.054 51.712,215.997 51.667 C 215.940 51.621,215.762 51.250,215.602 50.843 C 215.442 50.436,215.179 49.911,215.018 49.676 C 214.857 49.442,214.421 48.650,214.050 47.917 C 213.021 45.887,212.761 45.422,212.625 45.361 C 212.556 45.331,212.500 45.211,212.500 45.095 C 212.500 44.858,212.002 43.795,211.832 43.667 C 211.770 43.621,211.581 43.265,211.411 42.875 C 211.242 42.485,211.042 42.167,210.968 42.167 C 210.894 42.167,210.828 42.035,210.822 41.875 C 210.816 41.715,210.593 41.208,210.327 40.750 C 210.060 40.292,209.534 39.298,209.157 38.541 C 208.354 36.931,208.385 36.927,207.439 38.800 C 207.036 39.597,206.311 41.000,205.827 41.917 C 205.344 42.833,204.613 44.239,204.203 45.041 L 203.458 46.499 204.144 47.874 C 204.521 48.631,205.250 50.038,205.766 51.000 C 206.281 51.962,207.055 53.425,207.486 54.250 C 208.203 55.621,208.793 56.743,210.947 60.833 C 211.357 61.612,212.063 62.962,212.515 63.833 C 212.968 64.704,213.410 65.529,213.498 65.667 C 213.586 65.804,213.772 66.179,213.911 66.500 C 214.050 66.821,214.389 67.458,214.665 67.917 C 214.940 68.375,215.249 68.938,215.351 69.167 C 215.453 69.396,215.643 69.771,215.773 70.000 C 215.903 70.229,216.173 70.754,216.372 71.167 C 216.571 71.579,216.794 71.942,216.867 71.972 C 216.940 72.003,217.000 72.104,217.000 72.197 C 217.000 72.387,217.515 73.538,217.658 73.667 C 217.709 73.712,217.922 74.087,218.131 74.500 C 218.341 74.912,218.573 75.362,218.647 75.500 C 218.841 75.860,219.155 76.455,219.705 77.500 C 219.970 78.004,220.268 78.537,220.368 78.683 C 220.560 78.965,220.535 79.030,219.580 80.750 C 218.784 82.184,218.669 82.413,218.668 82.558 C 218.667 82.635,218.527 82.898,218.356 83.141 C 218.185 83.384,217.557 84.521,216.962 85.667 C 216.366 86.813,215.756 87.975,215.607 88.250 C 215.458 88.525,215.335 88.813,215.334 88.891 C 215.334 88.968,215.194 89.231,215.023 89.474 C 214.717 89.912,214.096 91.078,211.414 96.250 C 208.494 101.880,207.782 103.221,207.655 103.333 C 207.603 103.379,207.427 103.754,207.265 104.166 C 207.103 104.578,206.919 104.953,206.857 105.000 C 206.794 105.046,206.359 105.833,205.890 106.750 C 205.089 108.312,204.418 109.596,202.492 113.250 C 199.231 119.434,198.442 120.934,197.495 122.750 C 196.268 125.101,196.092 125.413,195.958 125.472 C 195.890 125.503,195.833 125.623,195.833 125.739 C 195.833 125.855,195.644 126.298,195.413 126.723 C 195.182 127.149,194.807 127.839,194.580 128.257 C 194.353 128.675,194.167 129.126,194.167 129.259 C 194.167 129.391,194.107 129.500,194.035 129.500 C 193.962 129.500,193.786 129.744,193.644 130.042 C 193.501 130.340,193.026 131.258,192.587 132.083 C 191.874 133.424,190.267 136.488,189.774 137.446 C 189.601 137.781,189.542 137.718,188.988 136.612 C 188.326 135.292,186.770 132.313,185.665 130.250 C 185.273 129.517,184.649 128.317,184.280 127.583 C 183.911 126.850,183.564 126.212,183.510 126.167 C 183.455 126.121,183.053 125.371,182.615 124.500 C 182.177 123.629,181.423 122.167,180.938 121.250 C 180.454 120.333,179.672 118.851,179.202 117.955 C 178.732 117.059,177.961 115.597,177.490 114.705 C 177.018 113.813,176.256 112.371,175.796 111.500 C 175.335 110.629,174.851 109.692,174.719 109.417 C 174.587 109.142,174.398 108.770,174.299 108.590 C 173.709 107.514,173.350 106.849,173.081 106.333 C 172.914 106.013,172.675 105.563,172.550 105.333 C 172.425 105.104,172.160 104.579,171.960 104.167 C 171.760 103.754,171.500 103.318,171.382 103.196 C 171.263 103.075,171.167 102.868,171.167 102.736 C 171.167 102.503,170.847 101.835,170.655 101.667 C 170.603 101.621,170.128 100.727,169.600 99.680 C 169.072 98.633,168.459 97.509,168.237 97.183 C 168.015 96.856,167.833 96.493,167.833 96.374 C 167.833 96.256,167.655 95.880,167.437 95.538 C 167.219 95.196,166.938 94.673,166.813 94.375 C 166.688 94.077,166.529 93.833,166.459 93.833 C 166.390 93.833,166.333 93.740,166.333 93.625 C 166.332 93.510,166.155 93.079,165.939 92.667 C 164.474 89.875,163.735 88.508,163.416 88.000 C 163.214 87.679,162.990 87.229,162.919 87.000 C 162.848 86.771,162.649 86.384,162.478 86.141 C 162.307 85.898,162.167 85.634,162.167 85.555 C 162.167 85.475,161.990 85.150,161.774 84.830 C 161.557 84.511,161.326 84.077,161.260 83.866 C 161.193 83.655,160.871 83.018,160.545 82.450 C 160.219 81.881,159.845 81.192,159.715 80.917 C 159.585 80.642,159.395 80.267,159.293 80.083 C 158.665 78.954,158.669 78.990,159.096 78.314 C 159.318 77.962,159.500 77.598,159.500 77.506 C 159.500 77.414,159.725 76.973,160.000 76.526 C 160.275 76.079,160.500 75.628,160.500 75.523 C 160.500 75.419,160.557 75.333,160.627 75.333 C 160.758 75.333,161.333 74.120,161.333 73.846 C 161.333 73.763,161.393 73.669,161.466 73.639 C 161.539 73.608,161.762 73.246,161.961 72.833 C 162.160 72.421,162.430 71.896,162.560 71.667 C 162.691 71.438,162.881 71.063,162.983 70.833 C 163.084 70.604,163.393 70.042,163.669 69.583 C 163.944 69.125,164.283 68.487,164.422 68.167 C 164.561 67.846,164.762 67.433,164.869 67.250 C 165.270 66.561,165.893 65.399,166.120 64.917 C 166.366 64.393,166.440 64.254,167.129 63.013 C 167.362 62.593,167.604 62.137,167.665 62.000 C 167.852 61.581,168.591 60.187,169.302 58.910 C 169.402 58.730,169.615 58.283,169.775 57.917 C 169.935 57.550,170.113 57.212,170.171 57.167 C 170.229 57.121,170.616 56.408,171.031 55.583 C 171.446 54.758,172.013 53.701,172.290 53.234 C 172.568 52.766,172.851 52.204,172.919 51.984 C 172.988 51.764,173.172 51.396,173.329 51.167 C 173.486 50.938,173.725 50.525,173.860 50.250 C 173.995 49.975,174.189 49.600,174.292 49.417 C 174.395 49.233,174.587 48.858,174.720 48.583 C 175.467 47.037,176.958 44.255,177.266 43.833 C 177.366 43.696,177.579 43.246,177.739 42.834 C 177.899 42.422,178.081 42.047,178.143 42.000 C 178.206 41.954,178.660 41.129,179.152 40.167 C 179.645 39.204,180.403 37.742,180.837 36.917 C 183.012 32.778,183.394 32.053,184.150 30.625 C 184.599 29.777,185.360 28.333,185.842 27.417 C 186.323 26.500,187.092 25.037,187.550 24.167 C 188.008 23.296,188.765 21.833,189.232 20.917 C 189.699 20.000,190.125 19.212,190.178 19.167 C 190.350 19.020,190.833 17.957,190.833 17.724 C 190.833 17.601,190.893 17.500,190.965 17.500 C 191.038 17.500,191.212 17.256,191.352 16.958 C 191.492 16.660,192.006 15.667,192.495 14.750 C 193.785 12.332,195.167 9.654,195.167 9.572 C 195.167 9.532,192.961 9.500,190.266 9.500 L 185.365 9.500 184.933 10.238 M205.468 10.208 C 205.264 10.598,204.930 11.217,204.726 11.583 C 204.523 11.950,204.239 12.512,204.096 12.833 C 203.954 13.154,203.764 13.529,203.675 13.667 C 203.586 13.804,203.341 14.254,203.131 14.667 C 202.922 15.079,202.701 15.454,202.640 15.500 C 202.580 15.547,202.397 15.922,202.235 16.334 C 202.073 16.746,201.888 17.121,201.826 17.167 C 201.763 17.212,201.334 18.000,200.872 18.917 C 200.410 19.833,199.649 21.296,199.180 22.167 C 198.712 23.037,198.198 24.012,198.039 24.333 C 197.880 24.654,197.707 24.954,197.654 25.000 C 197.602 25.046,197.414 25.444,197.238 25.884 C 197.061 26.324,196.803 26.812,196.664 26.967 C 196.526 27.123,196.265 27.587,196.086 28.000 C 195.906 28.412,195.720 28.787,195.671 28.833 C 195.623 28.879,195.418 29.254,195.216 29.667 C 195.013 30.079,194.685 30.717,194.485 31.083 C 194.051 31.881,194.048 31.887,192.734 34.417 C 190.506 38.706,189.937 39.772,189.559 40.372 C 189.343 40.714,189.161 41.089,189.154 41.205 C 189.148 41.321,189.000 41.642,188.827 41.917 C 188.653 42.192,188.358 42.717,188.170 43.083 C 187.981 43.450,187.762 43.862,187.683 44.000 C 187.604 44.137,187.437 44.475,187.313 44.750 C 187.189 45.025,186.806 45.720,186.461 46.295 C 186.116 46.869,185.833 47.414,185.833 47.506 C 185.833 47.598,185.662 47.953,185.454 48.295 C 185.245 48.637,184.926 49.217,184.745 49.583 C 184.565 49.950,184.360 50.275,184.292 50.306 C 184.223 50.336,184.167 50.461,184.167 50.584 C 184.167 50.803,183.672 51.837,183.490 52.000 C 183.438 52.046,183.033 52.796,182.591 53.667 C 182.148 54.538,181.347 56.075,180.811 57.083 C 180.274 58.092,179.595 59.404,179.300 60.000 C 179.005 60.596,178.480 61.553,178.132 62.128 C 177.784 62.702,177.500 63.235,177.500 63.311 C 177.500 63.388,177.299 63.818,177.054 64.267 C 176.809 64.716,176.258 65.758,175.829 66.583 C 175.401 67.408,174.652 68.833,174.165 69.750 C 173.678 70.667,172.974 72.017,172.601 72.750 C 172.227 73.483,171.881 74.121,171.831 74.167 C 171.781 74.212,171.356 75.000,170.886 75.917 C 170.417 76.833,169.864 77.885,169.658 78.253 L 169.284 78.923 169.645 79.670 C 169.844 80.081,170.368 81.092,170.810 81.917 C 172.115 84.355,173.315 86.639,174.224 88.417 C 174.693 89.333,175.122 90.121,175.177 90.167 C 175.344 90.307,175.833 91.371,175.833 91.595 C 175.833 91.711,175.890 91.831,175.958 91.861 C 176.027 91.892,176.231 92.217,176.412 92.583 C 176.593 92.950,176.911 93.530,177.120 93.872 C 177.329 94.214,177.500 94.571,177.500 94.667 C 177.500 94.762,177.677 95.120,177.892 95.462 C 178.108 95.804,178.659 96.796,179.116 97.667 C 179.573 98.537,180.146 99.610,180.390 100.050 C 180.634 100.491,180.833 100.960,180.833 101.092 C 180.833 101.225,180.894 101.333,180.968 101.333 C 181.042 101.333,181.242 101.652,181.412 102.042 C 181.582 102.431,181.897 103.030,182.111 103.372 C 182.325 103.714,182.500 104.071,182.500 104.167 C 182.500 104.262,182.691 104.643,182.925 105.014 C 183.159 105.384,183.685 106.339,184.094 107.135 C 184.503 107.932,185.062 108.987,185.335 109.481 C 185.609 109.975,185.833 110.475,185.833 110.593 C 185.833 110.710,185.890 110.831,185.958 110.861 C 186.027 110.892,186.321 111.367,186.611 111.917 C 187.558 113.710,188.350 115.221,189.188 116.833 C 189.641 117.704,190.196 118.747,190.422 119.151 C 190.648 119.555,190.833 119.986,190.833 120.110 C 190.833 120.233,190.908 120.333,191.000 120.333 C 191.092 120.333,191.167 120.455,191.167 120.604 C 191.167 120.825,191.212 120.837,191.417 120.667 C 191.554 120.553,191.667 120.362,191.667 120.243 C 191.667 120.125,191.723 120.003,191.792 119.972 C 191.968 119.894,192.500 118.851,192.500 118.584 C 192.500 118.461,192.556 118.336,192.625 118.306 C 192.694 118.275,192.926 117.912,193.142 117.500 C 193.357 117.087,193.907 116.037,194.363 115.167 C 195.505 112.985,195.852 112.310,196.046 111.883 C 196.252 111.433,196.068 110.942,194.967 109.018 C 194.527 108.248,194.167 107.553,194.167 107.473 C 194.167 107.392,193.992 107.047,193.778 106.705 C 193.564 106.363,193.249 105.765,193.079 105.375 C 192.909 104.985,192.709 104.667,192.635 104.667 C 192.561 104.667,192.500 104.566,192.500 104.442 C 192.500 104.202,192.012 103.138,191.838 103.000 C 191.780 102.954,191.351 102.167,190.884 101.250 C 189.632 98.789,189.429 98.422,189.292 98.361 C 189.223 98.331,189.167 98.205,189.167 98.083 C 189.167 97.868,188.676 96.836,188.493 96.667 C 188.444 96.621,188.023 95.833,187.559 94.917 C 186.772 93.362,186.399 92.648,184.142 88.375 C 183.670 87.481,182.929 86.075,182.496 85.250 C 181.611 83.565,180.141 80.778,179.573 79.711 L 179.198 79.006 179.741 77.961 C 180.040 77.387,180.644 76.242,181.084 75.417 C 181.524 74.592,182.228 73.242,182.649 72.417 C 183.069 71.592,183.454 70.879,183.505 70.833 C 183.555 70.787,183.876 70.188,184.218 69.500 C 184.559 68.813,185.284 67.425,185.828 66.417 C 186.372 65.408,187.174 63.871,187.610 63.000 C 188.046 62.129,188.443 61.379,188.493 61.333 C 188.646 61.192,189.167 60.149,189.167 59.983 C 189.167 59.897,189.343 59.547,189.559 59.205 C 189.928 58.621,190.556 57.446,192.522 53.667 C 192.975 52.796,193.749 51.333,194.242 50.417 C 194.735 49.500,195.495 48.038,195.931 47.167 C 196.367 46.296,196.767 45.546,196.820 45.500 C 197.002 45.342,197.500 44.306,197.500 44.084 C 197.500 43.961,197.556 43.836,197.625 43.806 C 197.752 43.749,198.041 43.239,198.791 41.750 C 199.021 41.292,199.273 40.804,199.350 40.667 C 199.428 40.529,199.620 40.154,199.777 39.833 C 199.935 39.512,200.237 38.970,200.449 38.628 C 200.660 38.286,200.833 37.929,200.833 37.833 C 200.833 37.738,201.025 37.357,201.259 36.986 C 201.492 36.616,202.018 35.661,202.427 34.865 C 202.836 34.068,203.395 33.013,203.669 32.519 C 203.943 32.025,204.167 31.525,204.167 31.407 C 204.167 31.290,204.223 31.169,204.292 31.139 C 204.360 31.108,204.565 30.783,204.745 30.417 C 204.926 30.050,205.245 29.470,205.454 29.128 C 205.662 28.786,205.833 28.429,205.833 28.333 C 205.833 28.238,206.025 27.857,206.259 27.486 C 206.492 27.116,207.018 26.161,207.427 25.365 C 207.836 24.568,208.395 23.513,208.669 23.019 C 208.943 22.525,209.167 22.018,209.167 21.894 C 209.167 21.769,209.242 21.667,209.333 21.667 C 209.425 21.667,209.500 21.573,209.501 21.458 C 209.502 21.344,209.646 21.031,209.822 20.764 L 210.143 20.278 210.622 21.264 C 210.885 21.806,211.295 22.587,211.532 23.000 C 211.770 23.412,212.526 24.837,213.213 26.167 C 215.534 30.659,216.379 32.248,216.668 32.667 C 216.827 32.896,217.013 33.271,217.082 33.500 C 217.151 33.729,217.272 33.998,217.351 34.097 C 217.485 34.265,218.120 35.475,220.539 40.167 C 221.083 41.221,221.628 42.196,221.751 42.333 C 221.874 42.471,222.027 42.808,222.093 43.083 C 222.158 43.358,222.311 43.699,222.434 43.841 C 222.616 44.051,224.165 46.949,224.901 48.457 C 225.001 48.663,225.140 48.831,225.208 48.832 C 225.277 48.833,225.333 48.916,225.333 49.016 C 225.333 49.224,225.848 50.373,225.997 50.500 C 226.051 50.546,226.449 51.296,226.881 52.167 C 227.313 53.038,227.891 54.125,228.165 54.583 C 228.438 55.042,228.707 55.529,228.762 55.667 C 228.817 55.804,228.999 56.179,229.167 56.500 C 229.335 56.821,229.844 57.796,230.298 58.667 C 230.752 59.538,231.459 60.887,231.870 61.667 C 232.280 62.446,233.089 63.983,233.668 65.083 C 234.247 66.183,235.120 67.833,235.607 68.750 C 236.095 69.667,236.852 71.129,237.289 72.000 C 237.726 72.871,238.140 73.608,238.208 73.639 C 238.277 73.669,238.333 73.801,238.333 73.931 C 238.333 74.060,238.400 74.167,238.481 74.167 C 238.563 74.167,238.679 74.429,238.739 74.750 C 238.799 75.071,238.920 75.333,239.008 75.333 C 239.095 75.333,239.167 75.404,239.167 75.491 C 239.167 75.578,239.420 76.084,239.729 76.616 C 240.039 77.148,240.347 77.771,240.416 78.000 C 240.484 78.229,240.640 78.531,240.762 78.671 C 241.018 78.964,241.057 78.881,237.080 86.417 C 236.547 87.425,235.730 88.999,235.264 89.913 C 234.798 90.828,234.293 91.716,234.141 91.886 C 233.989 92.056,233.817 92.452,233.758 92.764 C 233.700 93.077,233.580 93.333,233.492 93.333 C 233.405 93.333,233.333 93.440,233.333 93.569 C 233.333 93.699,233.277 93.831,233.208 93.861 C 233.140 93.892,232.701 94.667,232.235 95.583 C 230.353 99.279,229.127 101.588,229.005 101.667 C 228.933 101.712,228.825 101.984,228.763 102.269 C 228.701 102.555,228.523 102.930,228.367 103.103 C 228.211 103.276,227.729 104.130,227.295 105.000 C 226.861 105.871,226.289 106.964,226.023 107.430 C 225.758 107.896,225.484 108.458,225.414 108.680 C 225.345 108.902,225.242 109.121,225.185 109.167 C 225.128 109.212,224.883 109.625,224.640 110.083 C 223.052 113.089,221.284 116.443,220.357 118.208 C 219.912 119.056,219.150 120.500,218.663 121.417 C 217.813 123.017,216.513 125.514,215.799 126.917 C 215.613 127.283,215.397 127.696,215.320 127.833 C 215.242 127.971,215.008 128.421,214.798 128.833 C 214.588 129.246,214.329 129.676,214.222 129.790 C 214.115 129.904,213.935 130.279,213.823 130.623 C 213.710 130.968,213.569 131.287,213.509 131.333 C 213.449 131.379,213.003 132.204,212.519 133.167 C 212.034 134.129,211.577 134.992,211.503 135.083 C 211.429 135.175,210.677 136.600,209.832 138.250 C 208.987 139.900,208.248 141.287,208.189 141.333 C 208.131 141.379,207.728 142.129,207.294 143.000 C 206.860 143.871,206.058 145.427,205.512 146.458 L 204.519 148.333 209.468 148.332 L 214.417 148.331 214.729 147.791 C 214.901 147.493,215.661 146.050,216.419 144.583 C 217.176 143.117,218.301 140.979,218.917 139.833 C 220.368 137.138,220.833 136.207,220.833 136.001 C 220.833 135.909,220.908 135.833,221.000 135.833 C 221.092 135.833,221.167 135.769,221.167 135.690 C 221.167 135.611,221.662 134.617,222.268 133.482 C 222.874 132.346,223.737 130.704,224.187 129.833 C 224.637 128.962,225.079 128.137,225.171 128.000 C 225.262 127.862,225.451 127.487,225.591 127.167 C 225.730 126.846,226.014 126.283,226.221 125.917 C 226.588 125.266,226.911 124.663,227.416 123.685 C 227.552 123.419,227.834 122.876,228.041 122.476 C 228.247 122.077,228.473 121.725,228.542 121.694 C 228.610 121.664,228.667 121.563,228.667 121.470 C 228.667 121.278,229.183 120.127,229.326 120.000 C 229.378 119.954,229.740 119.279,230.131 118.500 C 230.521 117.721,231.100 116.633,231.417 116.083 C 231.734 115.533,232.038 114.971,232.094 114.833 C 232.150 114.696,232.333 114.321,232.500 114.000 C 232.668 113.679,233.176 112.704,233.630 111.833 C 234.083 110.962,234.891 109.425,235.425 108.417 C 235.959 107.408,236.793 105.833,237.279 104.917 C 237.764 104.000,238.519 102.538,238.955 101.667 C 239.392 100.796,239.881 99.938,240.042 99.761 C 240.202 99.583,240.334 99.358,240.334 99.260 C 240.335 99.163,240.457 98.858,240.606 98.583 C 241.401 97.112,243.260 93.550,243.955 92.167 C 244.392 91.296,244.878 90.442,245.033 90.269 C 245.189 90.096,245.366 89.721,245.427 89.436 C 245.488 89.150,245.635 88.804,245.755 88.667 C 245.933 88.461,247.516 85.510,248.234 84.043 C 248.334 83.837,248.473 83.669,248.542 83.668 C 248.610 83.667,248.667 83.584,248.667 83.484 C 248.667 83.278,249.180 82.129,249.329 82.000 C 249.951 81.462,250.846 78.947,250.600 78.428 C 250.453 78.119,250.333 77.790,250.333 77.697 C 250.333 77.604,250.277 77.503,250.208 77.472 C 250.140 77.442,249.885 77.042,249.642 76.583 C 248.409 74.257,247.704 72.919,246.834 71.250 C 246.308 70.242,245.756 69.192,245.607 68.917 C 245.457 68.642,245.335 68.353,245.334 68.276 C 245.334 68.198,245.192 67.936,245.019 67.692 C 244.846 67.449,244.271 66.387,243.739 65.333 C 243.208 64.279,242.731 63.379,242.678 63.333 C 242.589 63.255,242.492 63.058,242.024 62.000 C 241.922 61.771,241.573 61.133,241.247 60.583 C 240.921 60.033,240.614 59.471,240.564 59.333 C 240.515 59.196,240.374 58.896,240.253 58.667 C 240.131 58.438,239.893 57.988,239.724 57.667 C 239.555 57.346,239.379 57.046,239.333 57.000 C 239.138 56.805,238.833 56.153,238.833 55.931 C 238.833 55.799,238.737 55.591,238.618 55.470 C 238.500 55.349,238.240 54.913,238.040 54.500 C 237.840 54.087,237.570 53.563,237.440 53.333 C 237.309 53.104,237.122 52.729,237.024 52.500 C 236.926 52.271,236.630 51.708,236.367 51.250 C 236.104 50.792,235.814 50.267,235.722 50.083 C 235.631 49.900,235.420 49.487,235.252 49.167 C 235.085 48.846,234.772 48.246,234.557 47.833 C 234.342 47.421,234.100 46.971,234.020 46.833 C 233.939 46.696,233.750 46.321,233.599 46.000 C 233.113 44.966,232.426 43.752,232.294 43.694 C 232.224 43.664,232.167 43.513,232.167 43.358 C 232.167 43.204,231.995 42.816,231.786 42.497 C 231.576 42.178,231.257 41.599,231.077 41.210 C 230.897 40.822,230.694 40.503,230.625 40.502 C 230.556 40.501,230.500 40.384,230.500 40.242 C 230.500 39.983,230.043 38.990,229.852 38.833 C 229.796 38.787,229.369 38.000,228.903 37.083 C 228.116 35.534,227.224 33.821,225.256 30.083 C 224.822 29.258,224.123 27.908,223.703 27.083 C 223.283 26.258,222.853 25.471,222.747 25.333 C 222.641 25.196,222.453 24.821,222.329 24.500 C 222.205 24.179,221.922 23.624,221.701 23.267 C 221.479 22.909,220.879 21.784,220.367 20.767 C 219.854 19.749,219.388 18.879,219.331 18.833 C 219.274 18.787,219.094 18.413,218.932 18.000 C 218.769 17.588,218.583 17.213,218.518 17.167 C 218.453 17.121,217.996 16.296,217.503 15.333 C 216.627 13.621,215.201 10.870,214.718 9.958 L 214.476 9.500 210.158 9.500 L 205.840 9.500 205.468 10.208 M77.333 200.083 L 77.333 215.500 81.333 215.500 L 85.333 215.500 85.333 210.750 L 85.333 206.000 90.089 206.000 C 94.465 206.000,94.852 206.023,94.952 206.292 C 95.011 206.452,95.421 207.164,95.863 207.873 C 96.305 208.583,96.667 209.202,96.667 209.250 C 96.667 209.298,97.042 209.935,97.500 210.667 C 97.958 211.398,98.333 212.035,98.333 212.083 C 98.333 212.131,98.708 212.769,99.167 213.500 C 99.625 214.231,100.000 214.935,100.000 215.064 C 100.000 215.465,100.404 215.500,105.014 215.500 C 109.890 215.500,109.808 215.519,109.083 214.569 C 108.854 214.268,108.667 213.942,108.667 213.844 C 108.667 213.747,108.592 213.667,108.500 213.667 C 108.408 213.667,108.333 213.552,108.333 213.413 C 108.333 213.142,107.017 210.955,106.797 210.861 C 106.725 210.831,106.667 210.698,106.667 210.568 C 106.667 210.437,106.292 209.731,105.833 209.000 C 105.375 208.269,105.000 207.631,105.000 207.583 C 105.000 207.535,104.636 206.915,104.191 206.205 C 103.086 204.443,103.040 204.256,103.617 203.885 C 104.390 203.388,105.360 202.479,106.417 201.261 C 106.641 201.003,106.978 200.473,107.112 200.167 C 107.172 200.029,107.348 199.729,107.503 199.500 C 108.949 197.363,108.577 191.974,106.785 189.092 C 106.352 188.397,106.360 188.405,105.029 187.204 C 102.594 185.007,100.217 184.667,87.306 184.667 L 77.333 184.667 77.333 200.083 M116.500 200.083 L 116.500 215.500 129.833 215.500 L 143.167 215.500 143.167 212.333 L 143.167 209.167 133.917 209.167 L 124.667 209.167 124.667 206.167 L 124.667 203.167 132.833 203.167 L 141.000 203.167 141.000 200.083 L 141.000 197.000 132.833 197.000 L 124.667 197.000 124.667 194.083 L 124.667 191.167 133.750 191.167 L 142.833 191.167 142.833 187.917 L 142.833 184.667 129.667 184.667 L 116.500 184.667 116.500 200.083 M150.333 200.083 L 150.333 215.500 154.333 215.500 L 158.333 215.500 158.338 205.792 L 158.342 196.083 158.963 196.773 C 159.304 197.152,159.958 197.895,160.417 198.423 C 160.875 198.950,161.400 199.542,161.583 199.737 C 161.767 199.932,162.179 200.393,162.500 200.761 C 163.531 201.944,165.235 203.865,165.750 204.425 C 166.025 204.723,166.587 205.353,167.000 205.823 C 168.135 207.117,168.921 208.003,171.529 210.923 C 172.842 212.394,174.292 214.024,174.750 214.547 L 175.583 215.498 179.625 215.499 L 183.667 215.500 183.667 200.080 L 183.667 184.661 179.625 184.705 L 175.583 184.750 175.500 194.388 L 175.417 204.027 175.016 203.555 C 174.795 203.296,174.308 202.740,173.932 202.321 C 173.557 201.902,172.800 201.045,172.250 200.416 C 171.222 199.242,170.785 198.749,169.917 197.791 C 169.642 197.487,168.929 196.689,168.333 196.018 C 167.737 195.347,167.025 194.547,166.750 194.241 C 166.475 193.934,165.898 193.285,165.468 192.800 C 164.661 191.889,163.063 190.090,162.014 188.912 C 161.686 188.543,161.079 187.867,160.667 187.410 C 160.254 186.953,159.542 186.149,159.085 185.623 L 158.253 184.667 154.293 184.667 L 150.333 184.667 150.333 200.083 M201.333 184.844 C 201.333 184.942,201.146 185.431,200.917 185.932 C 200.688 186.433,200.500 186.886,200.500 186.938 C 200.500 186.991,200.200 187.665,199.833 188.437 C 199.467 189.208,199.167 189.914,199.167 190.005 C 199.167 190.097,199.094 190.301,199.006 190.461 C 198.596 191.199,197.500 193.586,197.500 193.741 C 197.500 193.836,197.245 194.439,196.934 195.082 C 196.429 196.122,196.108 196.838,195.661 197.917 C 195.585 198.100,195.293 198.748,195.012 199.357 C 194.730 199.966,194.500 200.547,194.500 200.649 C 194.500 200.750,194.425 200.833,194.333 200.833 C 194.242 200.833,194.167 200.969,194.167 201.135 C 194.167 201.302,193.989 201.808,193.772 202.260 C 192.828 204.229,192.500 204.957,192.500 205.082 C 192.500 205.196,192.045 206.195,191.066 208.234 C 190.938 208.500,190.833 208.780,190.833 208.856 C 190.833 208.932,190.526 209.651,190.150 210.455 C 189.775 211.259,189.407 212.067,189.334 212.250 C 189.261 212.433,189.081 212.857,188.934 213.192 C 188.787 213.527,188.667 213.883,188.667 213.984 C 188.667 214.084,188.607 214.167,188.533 214.167 C 188.412 214.167,188.000 215.112,188.000 215.389 C 188.000 215.453,190.079 215.485,192.621 215.461 L 197.242 215.417 197.396 214.917 C 197.480 214.642,197.651 214.180,197.775 213.891 C 197.899 213.603,198.000 213.324,198.000 213.271 C 198.000 213.219,198.177 212.781,198.393 212.297 C 198.610 211.813,198.890 211.173,199.017 210.875 L 199.248 210.333 206.856 210.333 L 214.464 210.333 214.570 210.754 C 214.628 210.986,214.861 211.581,215.088 212.077 C 215.314 212.573,215.500 213.083,215.500 213.211 C 215.500 213.339,215.687 213.812,215.916 214.263 C 216.145 214.714,216.332 215.177,216.333 215.292 C 216.333 215.453,217.361 215.500,220.917 215.500 C 226.129 215.500,225.783 215.629,225.000 213.973 C 224.725 213.392,224.500 212.823,224.500 212.708 C 224.500 212.594,224.433 212.500,224.351 212.500 C 224.270 212.500,224.155 212.311,224.097 212.079 C 223.996 211.678,223.622 210.801,222.734 208.885 C 222.514 208.410,222.333 207.981,222.333 207.932 C 222.333 207.883,222.136 207.410,221.894 206.880 C 221.653 206.350,221.240 205.446,220.978 204.871 C 220.715 204.296,220.500 203.787,220.500 203.742 C 220.500 203.696,220.169 202.959,219.764 202.105 C 219.360 201.250,218.935 200.240,218.821 199.859 C 218.707 199.478,218.551 199.167,218.474 199.167 C 218.396 199.167,218.333 199.097,218.333 199.012 C 218.333 198.926,218.108 198.370,217.833 197.776 C 217.558 197.182,217.333 196.647,217.333 196.588 C 217.333 196.528,217.114 196.015,216.847 195.448 C 216.120 193.907,215.500 192.502,215.500 192.395 C 215.500 192.343,215.191 191.651,214.813 190.858 C 214.435 190.065,214.020 189.118,213.890 188.752 C 213.760 188.387,213.401 187.562,213.092 186.919 C 212.783 186.276,212.439 185.506,212.328 185.208 L 212.126 184.667 206.730 184.667 C 203.027 184.667,201.333 184.722,201.333 184.844 M229.172 195.625 C 229.179 207.513,229.215 208.045,230.139 209.748 C 230.338 210.113,230.501 210.488,230.503 210.581 C 230.513 211.236,233.351 213.574,234.927 214.225 C 238.328 215.630,238.761 215.702,244.333 215.784 C 253.307 215.915,257.731 214.193,259.840 209.750 C 260.588 208.176,260.666 206.800,260.666 195.208 L 260.667 184.667 256.671 184.667 L 252.676 184.667 252.630 195.292 L 252.583 205.917 252.083 206.644 C 250.108 209.518,241.285 210.119,238.700 207.555 C 238.581 207.437,238.386 207.283,238.266 207.212 C 238.146 207.141,237.850 206.766,237.608 206.378 L 237.167 205.673 237.167 195.170 L 237.167 184.667 233.167 184.667 L 229.167 184.667 229.172 195.625 M269.167 200.083 L 269.167 215.500 281.917 215.500 L 294.667 215.500 294.667 212.333 L 294.667 209.167 285.917 209.167 L 277.167 209.167 277.167 196.917 L 277.167 184.667 273.167 184.667 L 269.167 184.667 269.167 200.083 M290.500 187.917 L 290.500 191.167 296.500 191.167 L 302.500 191.167 302.500 203.333 L 302.500 215.500 306.500 215.500 L 310.500 215.500 310.500 203.333 L 310.500 191.167 316.417 191.167 L 322.333 191.167 322.333 187.917 L 322.333 184.667 306.417 184.667 L 290.500 184.667 290.500 187.917 M97.725 191.420 C 100.065 192.550,100.139 197.796,97.838 199.383 C 97.468 199.637,96.804 199.667,91.380 199.667 L 85.333 199.667 85.333 195.417 L 85.333 191.167 91.266 191.167 C 96.236 191.167,97.285 191.208,97.725 191.420 M207.157 191.875 C 207.273 192.265,207.510 192.898,207.684 193.283 C 207.858 193.667,208.000 194.047,208.000 194.126 C 208.000 194.206,208.142 194.566,208.315 194.927 C 208.488 195.288,208.752 195.958,208.903 196.417 C 209.053 196.875,209.281 197.475,209.409 197.750 C 209.918 198.839,210.300 199.792,210.581 200.667 C 210.858 201.528,211.494 203.058,211.844 203.706 C 211.930 203.865,212.000 204.034,212.000 204.081 C 212.000 204.128,209.667 204.167,206.816 204.167 C 201.944 204.167,201.638 204.149,201.750 203.875 C 201.815 203.715,202.043 203.096,202.257 202.500 C 202.651 201.396,202.969 200.607,203.497 199.417 C 203.659 199.050,203.952 198.293,204.148 197.735 C 204.343 197.177,204.802 196.019,205.168 195.163 C 205.534 194.307,205.833 193.485,205.833 193.337 C 205.833 193.188,205.896 192.995,205.972 192.908 C 206.049 192.821,206.243 192.394,206.403 191.958 C 206.761 190.984,206.889 190.970,207.157 191.875 " stroke="none" fill="#040404" fill-rule="evenodd"></path><path id="path1" d="" stroke="none" fill="#080404" fill-rule="evenodd"></path><path id="path2" d="" stroke="none" fill="#080404" fill-rule="evenodd"></path><path id="path3" d="" stroke="none" fill="#080404" fill-rule="evenodd"></path><path id="path4" d="" stroke="none" fill="#080404" fill-rule="evenodd"></path></g></svg>