<svg version="1.2" baseProfile="tiny-ps" xmlns="http://www.w3.org/2000/svg" viewBox="0 0 1552 1120" width="1552" height="1120">
	<title>stell-logo-blue-svg copy-svg</title>
	<style>
		tspan { white-space:pre }
		.shp0 { fill: #243882 } 
	</style>
	<path id="Layer" fill-rule="evenodd" class="shp0" d="M1329.57 405.33C1328.44 405.44 1327.3 405.3 1326.2 404.95C1325.14 404.58 1324.14 404.03 1323.29 403.31C1322.43 402.55 1321.71 401.66 1321.19 400.66C1320.64 399.63 1320.33 398.53 1320.23 397.4L1320.26 397.4C1320.09 395.1 1320.85 392.83 1322.36 391.08C1323.87 389.33 1326.03 388.26 1328.33 388.09C1330.63 387.96 1332.9 388.71 1334.65 390.22C1336.4 391.73 1337.47 393.86 1337.67 396.16C1337.74 397.33 1337.6 398.46 1337.23 399.56C1336.88 400.63 1336.3 401.66 1335.54 402.52C1334.79 403.37 1333.9 404.1 1332.87 404.61C1331.84 405.13 1330.7 405.44 1329.57 405.5M775.59 123.11C775.59 119.77 776.24 116.51 777.51 113.42C778.82 110.33 780.67 107.55 783.04 105.21C785.37 102.84 788.16 100.99 791.25 99.72C794.34 98.41 797.63 97.76 800.96 97.76C811.19 97.76 820.43 103.94 824.38 113.42C828.29 122.9 826.13 133.79 818.89 141.03C811.61 148.28 800.72 150.44 791.25 146.53C781.77 142.61 775.59 133.37 775.59 123.11ZM936.73 177.4C936.73 174.07 937.38 170.77 938.65 167.68C939.92 164.63 941.78 161.81 944.14 159.47C946.51 157.1 949.3 155.25 952.39 153.98C955.44 152.71 958.74 152.06 962.07 152.06C972.4 152.06 981.67 158.27 985.62 167.79C989.57 177.3 987.41 188.29 980.09 195.57C972.82 202.88 961.83 205.05 952.32 201.1C942.77 197.15 936.56 187.84 936.56 177.54L936.73 177.4ZM330.35 841.04C330.35 837.7 331.04 834.41 332.34 831.35C333.61 828.29 335.5 825.51 337.87 823.18C340.24 820.84 343.05 818.99 346.14 817.72C349.2 816.48 352.5 815.83 355.83 815.86C366.16 815.93 375.43 822.18 379.31 831.73C383.19 841.28 380.96 852.23 373.61 859.48C366.27 866.76 355.28 868.85 345.77 864.84C336.29 860.85 330.11 851.51 330.18 841.21L330.35 841.04ZM455.68 946.47C455.71 943.14 456.36 939.84 457.67 936.78C458.94 933.69 460.79 930.91 463.16 928.54C465.5 926.17 468.28 924.28 471.33 922.98C474.42 921.71 477.72 921.02 481.05 920.95C491.35 920.95 500.66 927.17 504.61 936.71C508.55 946.23 506.36 957.22 499.08 964.5C491.76 971.78 480.81 973.98 471.27 970.03C461.75 966.08 455.54 956.77 455.54 946.47L455.68 946.47ZM617.16 985.82C618.43 982.73 620.32 979.88 622.69 977.51C625.06 975.14 627.87 973.29 630.96 972.02C634.09 970.71 637.42 970.09 640.75 970.09C651.08 970.09 660.39 976.31 664.34 985.86C668.29 995.37 666.09 1006.33 658.81 1013.64C651.5 1020.92 640.54 1023.12 631 1019.17C621.45 1015.22 615.24 1005.91 615.24 995.61C615.24 992.25 615.89 988.91 617.16 985.82ZM779.16 993.59C779.09 990.19 779.67 986.82 780.94 983.66C782.18 980.5 784.03 977.62 786.44 975.21C788.81 972.77 791.66 970.85 794.78 969.55C797.91 968.24 801.27 967.59 804.67 967.62C814.87 967.69 824 973.84 827.92 983.21C831.83 992.62 829.74 1003.44 822.59 1010.72C815.49 1017.97 804.67 1020.27 795.23 1016.53C785.75 1012.78 779.43 1003.75 779.16 993.59ZM936.87 943.34C936.87 940.01 937.48 936.68 938.79 933.59C940.06 930.46 941.91 927.65 944.32 925.28C946.69 922.91 949.5 921.02 952.59 919.75C955.72 918.48 959.01 917.83 962.38 917.86C972.64 918 981.81 924.25 985.69 933.73C989.57 943.24 987.37 954.13 980.09 961.37C972.85 968.65 961.97 970.85 952.45 966.97C942.94 963.12 936.69 953.92 936.56 943.69L936.87 943.34ZM1064.12 832.83C1065.39 829.7 1067.27 826.89 1069.64 824.52C1072.01 822.15 1074.83 820.26 1077.95 818.99C1081.04 817.72 1084.37 817.06 1087.74 817.1C1098.04 817.1 1107.35 823.32 1111.29 832.83C1115.24 842.38 1113.08 853.33 1105.77 860.65C1098.49 867.93 1087.5 870.09 1077.99 866.14C1068.44 862.23 1062.23 852.92 1062.23 842.58C1062.19 839.25 1062.85 835.92 1064.12 832.83ZM1060.51 278.16C1060.51 274.8 1061.13 271.5 1062.4 268.41C1063.67 265.32 1065.52 262.5 1067.89 260.13C1070.23 257.76 1073.04 255.87 1076.13 254.6C1079.22 253.3 1082.52 252.65 1085.85 252.65C1096.12 252.65 1105.35 258.79 1109.27 268.27C1113.22 277.72 1111.05 288.6 1103.84 295.85C1096.63 303.13 1085.75 305.33 1076.27 301.45C1066.79 297.57 1060.58 288.4 1060.51 278.16ZM882.44 210.99C882.48 215.25 881.65 219.47 880.04 223.39C878.43 227.34 876.02 230.94 873.03 233.93C870.01 236.95 866.44 239.36 862.49 241C858.58 242.62 854.36 243.48 850.1 243.48C837.02 243.48 825.24 235.61 820.23 223.56C815.21 211.47 817.96 197.56 827.16 188.32C836.4 179.05 850.27 176.23 862.36 181.21C874.44 186.16 882.37 197.9 882.44 210.99ZM991.32 277.99C991.32 282.25 990.5 286.47 988.88 290.42C987.27 294.37 984.9 297.94 981.88 300.97C978.89 303.99 975.32 306.39 971.37 308.01C967.42 309.65 963.24 310.48 958.94 310.48C945.9 310.48 934.12 302.61 929.11 290.56C924.06 278.51 926.8 264.6 936.04 255.32C945.24 246.09 959.15 243.27 971.24 248.22C983.32 253.2 991.25 264.94 991.32 277.99ZM1076.24 373.63C1076.24 377.89 1075.41 382.12 1073.8 386.1C1072.15 390.05 1069.78 393.62 1066.76 396.64C1063.74 399.67 1060.13 402.07 1056.18 403.68C1052.24 405.33 1047.98 406.16 1043.72 406.12C1030.57 406.12 1018.72 398.19 1013.68 386.07C1008.66 373.91 1011.44 359.93 1020.75 350.66C1030.02 341.35 1044.03 338.57 1056.15 343.58C1068.3 348.63 1076.24 360.48 1076.24 373.63ZM843.57 10.08C843.47 11.18 843.16 12.28 842.61 13.28C842.1 14.31 841.38 15.17 840.52 15.92C839.66 16.64 838.63 17.16 837.56 17.5C836.5 17.85 835.37 17.95 834.23 17.85C833.1 17.74 832 17.4 830.97 16.85C829.98 16.33 829.08 15.58 828.33 14.72C827.61 13.83 827.06 12.83 826.68 11.73C826.34 10.67 826.2 9.5 826.3 8.37C826.41 7.23 826.75 6.14 827.3 5.1C827.81 4.11 828.57 3.22 829.43 2.46C830.32 1.74 831.32 1.19 832.41 0.85C833.51 0.47 834.65 0.33 835.78 0.43C836.91 0.57 837.98 0.92 838.97 1.46C839.97 2.01 840.83 2.74 841.51 3.63C842.23 4.49 842.75 5.52 843.09 6.58C843.4 7.68 843.51 8.81 843.4 9.91L843.57 10.08ZM1060.51 88.76C1060.41 89.9 1060.1 91 1059.58 91.99C1059.07 93.02 1058.35 93.91 1057.49 94.64C1056.63 95.36 1055.6 95.94 1054.54 96.28C1053.47 96.63 1052.3 96.76 1051.17 96.7C1050.21 96.49 1049.28 96.15 1048.42 95.63C1047.57 95.15 1046.78 94.5 1046.16 93.74C1045.51 92.99 1044.99 92.13 1044.61 91.2C1044.27 90.27 1044.06 89.28 1044.03 88.28C1044.03 87.15 1044.24 86.02 1044.68 84.95C1045.09 83.92 1045.71 82.96 1046.5 82.14C1047.29 81.31 1048.25 80.66 1049.28 80.18C1050.31 79.73 1051.45 79.46 1052.58 79.42C1053.71 79.53 1054.81 79.83 1055.81 80.35C1056.8 80.9 1057.69 81.62 1058.42 82.48C1059.14 83.34 1059.69 84.33 1060.03 85.43C1060.34 86.5 1060.48 87.63 1060.37 88.76L1060.51 88.76ZM1230.65 210.82C1230.68 210.95 1230.68 211.09 1230.72 211.26C1230.72 211.4 1230.72 211.54 1230.72 211.68C1230.72 211.81 1230.72 211.95 1230.72 212.09C1230.68 212.26 1230.68 212.4 1230.65 212.53C1230.41 213.63 1229.96 214.7 1229.31 215.66C1228.69 216.62 1227.87 217.44 1226.94 218.06C1225.98 218.72 1224.91 219.2 1223.81 219.44C1222.68 219.68 1221.51 219.71 1220.38 219.54C1219.28 219.3 1218.22 218.82 1217.29 218.2C1216.33 217.55 1215.54 216.72 1214.89 215.8C1214.27 214.83 1213.82 213.77 1213.58 212.64C1213.34 211.54 1213.34 210.37 1213.55 209.27C1213.65 208.14 1213.96 207.04 1214.47 206.04C1215.02 205.05 1215.74 204.15 1216.6 203.43C1217.46 202.71 1218.46 202.16 1219.56 201.82C1220.62 201.51 1221.75 201.37 1222.89 201.48C1224.02 201.58 1225.15 201.92 1226.15 202.44C1227.18 202.99 1228.07 203.71 1228.83 204.57C1229.55 205.46 1230.13 206.49 1230.48 207.59C1230.78 208.69 1230.92 209.82 1230.82 210.99L1230.65 210.82ZM935.94 97.93C935.84 100.13 935.25 102.29 934.29 104.29C933.33 106.28 931.96 108.03 930.31 109.51C928.62 110.95 926.7 112.05 924.57 112.73C922.48 113.42 920.25 113.66 918.05 113.49C911.46 112.91 905.86 108.44 903.8 102.16C901.74 95.87 903.66 88.97 908.68 84.61C913.65 80.28 920.76 79.35 926.7 82.24C932.64 85.16 936.28 91.34 935.94 97.93ZM1100.65 179.87C1100.55 182.07 1100 184.24 1099.04 186.23C1098.11 188.22 1096.74 189.97 1095.09 191.45C1093.44 192.89 1091.52 193.99 1089.42 194.68C1087.33 195.36 1085.1 195.6 1082.9 195.43L1081.35 195.43C1076.89 194.98 1072.8 192.79 1070.02 189.28C1067.24 185.75 1066 181.28 1066.59 176.85C1067.17 172.39 1069.58 168.4 1073.18 165.76C1076.79 163.08 1081.28 162.02 1085.71 162.77C1087.91 162.87 1090.07 163.46 1092.07 164.42C1094.06 165.38 1095.84 166.76 1097.28 168.4C1098.73 170.09 1099.83 172.04 1100.51 174.14C1101.2 176.23 1101.44 178.47 1101.27 180.66L1100.65 179.87ZM1213.86 297.6C1216.05 297.7 1218.22 298.25 1220.21 299.25C1222.2 300.21 1223.99 301.55 1225.43 303.23C1226.87 304.91 1227.97 306.84 1228.66 308.93C1229.34 311.06 1229.62 313.26 1229.41 315.46C1228.83 322.05 1224.4 327.68 1218.08 329.71C1211.8 331.77 1204.89 329.85 1200.53 324.87C1196.21 319.85 1195.28 312.78 1198.16 306.8C1201.08 300.86 1207.26 297.22 1213.86 297.6ZM720.68 52.84C722.88 52.81 725.01 53.22 727.04 54.04C729.03 54.87 730.88 56.07 732.39 57.61C733.94 59.16 735.14 60.98 735.96 62.97C736.79 65 737.2 67.16 737.2 69.33C737.13 76.06 733.01 82.07 726.76 84.61C720.51 87.11 713.37 85.6 708.67 80.83C703.96 76.02 702.59 68.84 705.23 62.66C707.88 56.45 713.95 52.46 720.68 52.53L720.68 52.84ZM640.44 98.38C643.77 98.41 647.07 99.07 650.16 100.34C653.21 101.61 656.03 103.46 658.36 105.83C660.73 108.17 662.59 110.98 663.86 114.04C665.13 117.13 665.81 120.43 665.81 123.76C665.75 134.06 659.46 143.33 649.92 147.21C640.37 151.09 629.38 148.83 622.14 141.51C614.89 134.16 612.8 123.17 616.78 113.7C620.8 104.18 630.14 98.04 640.44 98.07L640.44 98.38ZM479.47 152.19C482.8 152.23 486.1 152.91 489.15 154.22C492.24 155.53 495.03 157.41 497.36 159.75C499.73 162.12 501.58 164.93 502.85 167.99C504.16 171.08 504.81 174.38 504.85 177.71C504.78 188.01 498.49 197.29 488.95 201.17C479.4 205.05 468.42 202.81 461.17 195.47C453.93 188.12 451.83 177.16 455.81 167.65C459.83 158.14 469.17 151.99 479.47 152.06L479.47 152.19ZM70.77 656.62L338.9 656.62L321.63 703.29L0.31 703.29L0.31 389.16L70.77 389.16L70.77 656.62ZM275.89 386.07C279.19 386.17 282.45 386.96 285.47 388.3C288.46 389.67 291.17 391.63 293.44 394.03C295.7 396.44 297.49 399.25 298.66 402.34C299.82 405.44 300.41 408.73 300.31 412.03C300.27 422.33 293.99 431.6 284.44 435.49C274.86 439.37 263.91 437.13 256.66 429.78C249.42 422.47 247.29 411.48 251.31 401.97C255.32 392.45 264.66 386.31 274.96 386.38L275.89 386.07ZM356.93 252.65C360.26 252.68 363.55 253.37 366.61 254.67C369.7 255.98 372.48 257.87 374.81 260.2C377.18 262.57 379.04 265.39 380.31 268.44C381.58 271.53 382.27 274.83 382.27 278.16C382.23 288.46 375.95 297.74 366.4 301.62C356.82 305.5 345.87 303.27 338.62 295.92C331.38 288.57 329.25 277.61 333.27 268.1C337.29 258.59 346.62 252.44 356.93 252.51L356.93 252.65ZM720.68 962.47C716.43 962.47 712.24 961.61 708.32 959.96C704.37 958.32 700.8 955.91 697.82 952.92C694.83 949.9 692.43 946.33 690.81 942.38C689.2 938.47 688.34 934.24 688.34 929.98C688.41 916.83 696.37 905.02 708.56 900.07C720.72 895.09 734.69 897.94 743.96 907.28C753.2 916.62 755.91 930.6 750.83 942.72C745.75 954.85 733.84 962.71 720.68 962.64L720.68 962.47ZM720.68 224.04C716.43 224 712.24 223.15 708.32 221.53C704.37 219.88 700.8 217.48 697.82 214.46C694.83 211.43 692.43 207.86 690.81 203.95C689.2 200 688.34 195.81 688.34 191.55C688.41 178.4 696.37 166.58 708.56 161.6C720.72 156.62 734.69 159.47 743.96 168.82C753.2 178.16 755.91 192.17 750.83 204.26C745.75 216.38 733.84 224.24 720.68 224.18L720.68 224.04ZM591.44 243C587.22 243 583 242.14 579.08 240.49C575.17 238.84 571.63 236.44 568.64 233.41C565.66 230.39 563.29 226.82 561.67 222.91C560.06 218.96 559.24 214.77 559.27 210.51C559.34 197.35 567.3 185.54 579.46 180.6C591.65 175.62 605.62 178.47 614.86 187.81C624.13 197.15 626.84 211.13 621.73 223.25C616.65 235.37 604.76 243.24 591.61 243.17L591.44 243ZM482.42 309.86C478.2 309.86 473.98 309 470.06 307.35C466.15 305.7 462.61 303.3 459.59 300.28C456.6 297.26 454.27 293.68 452.66 289.77C451.04 285.82 450.22 281.63 450.25 277.37C450.32 264.22 458.29 252.41 470.44 247.46C482.63 242.48 496.61 245.33 505.84 254.67C515.08 264.01 517.79 277.99 512.71 290.11C507.63 302.24 495.75 310.1 482.6 310.03L482.42 309.86ZM397.68 405.2C393.43 405.16 389.24 404.3 385.32 402.65C381.41 401.04 377.84 398.64 374.85 395.61C371.86 392.59 369.49 389.02 367.88 385.07C366.27 381.16 365.48 376.93 365.48 372.71C365.82 359.49 374.09 347.81 386.42 343.1C398.75 338.43 412.72 341.66 421.72 351.31C430.75 360.96 433.01 375.08 427.52 387.06C421.99 399.05 409.77 406.53 396.58 405.95L397.68 405.2ZM362.39 525.7C358.13 525.7 353.9 524.84 349.99 523.23C346.08 521.62 342.5 519.21 339.48 516.22C336.5 513.24 334.13 509.66 332.48 505.72C330.86 501.8 330.04 497.61 330.04 493.35C330.07 480.2 338.08 468.39 350.23 463.44C362.42 458.46 376.36 461.31 385.63 470.65C394.87 479.99 397.58 493.97 392.5 506.09C387.42 518.22 375.54 526.08 362.39 526.01L362.39 525.7ZM607.17 17.85C606.04 17.95 604.9 17.81 603.84 17.43C602.77 17.09 601.78 16.54 600.92 15.79C600.06 15.06 599.37 14.17 598.86 13.14C598.38 12.15 598.07 11.05 598 9.91C597.86 8.78 597.97 7.65 598.28 6.55C598.62 5.45 599.13 4.42 599.89 3.53C600.61 2.67 601.5 1.91 602.5 1.4C603.53 0.85 604.63 0.54 605.76 0.43C606.89 0.33 608.06 0.47 609.16 0.85C610.22 1.19 611.25 1.74 612.11 2.46C613.01 3.22 613.73 4.11 614.28 5.1C614.79 6.14 615.13 7.23 615.24 8.37C615.34 9.5 615.2 10.67 614.86 11.73C614.52 12.83 613.93 13.83 613.21 14.72C612.49 15.58 611.6 16.33 610.57 16.85C609.57 17.4 608.47 17.74 607.31 17.85L607.17 17.85ZM387.18 96.11C386.08 95.77 385.08 95.22 384.22 94.5C383.36 93.74 382.64 92.85 382.13 91.85C381.61 90.82 381.3 89.72 381.2 88.59C381.1 87.49 381.24 86.36 381.61 85.26C381.96 84.2 382.51 83.23 383.26 82.38C383.98 81.52 384.88 80.83 385.91 80.31C386.9 79.8 388 79.49 389.13 79.42C390.27 79.35 391.4 79.49 392.46 79.83C393.56 80.18 394.56 80.73 395.42 81.48C396.28 82.2 397 83.1 397.51 84.13C398.03 85.12 398.37 86.22 398.44 87.36C398.54 88.49 398.4 89.62 398.06 90.69C397.68 91.75 397.13 92.75 396.41 93.61C395.66 94.43 394.76 95.15 393.77 95.63C392.74 96.15 391.64 96.46 390.51 96.52C389.37 96.63 388.24 96.49 387.18 96.11ZM1329.09 775.89C1327.96 775.99 1326.82 775.85 1325.76 775.48C1324.66 775.13 1323.66 774.58 1322.81 773.83C1321.95 773.11 1321.23 772.21 1320.71 771.18C1320.2 770.19 1319.89 769.09 1319.78 767.95C1319.68 766.82 1319.82 765.72 1320.2 764.62C1320.54 763.56 1321.09 762.56 1321.84 761.74C1322.56 760.88 1323.46 760.16 1324.49 759.68C1325.48 759.16 1326.58 758.85 1327.72 758.79L1329.57 758.79C1331.87 758.79 1334.1 759.71 1335.72 761.33C1337.36 762.98 1338.29 765.17 1338.29 767.51C1338.29 769.81 1337.36 772.01 1335.72 773.66C1334.1 775.27 1331.87 776.2 1329.57 776.2L1329.09 775.89ZM1221.82 920.16C1220.72 919.82 1219.69 919.23 1218.84 918.51C1217.94 917.76 1217.22 916.86 1216.67 915.83C1216.16 914.84 1215.81 913.7 1215.74 912.57C1215.64 911.44 1215.78 910.27 1216.12 909.21C1216.47 908.11 1217.05 907.08 1217.77 906.22C1218.49 905.32 1219.38 904.6 1220.41 904.09C1221.41 903.54 1222.51 903.2 1223.68 903.09C1224.81 902.99 1225.94 903.13 1227.04 903.47C1228.14 903.85 1229.14 904.4 1230.03 905.12C1230.89 905.84 1231.61 906.77 1232.16 907.76C1232.71 908.76 1233.02 909.89 1233.15 911.03C1233.22 912.16 1233.05 913.29 1232.71 914.36C1232.36 915.46 1231.78 916.45 1231.06 917.34C1230.34 918.2 1229.44 918.92 1228.45 919.47C1227.45 920.02 1226.35 920.37 1225.22 920.5C1224.05 920.61 1222.92 920.47 1221.82 920.16ZM1052.13 1042.56C1051 1042.66 1049.87 1042.56 1048.77 1042.21C1047.7 1041.87 1046.71 1041.36 1045.85 1040.63C1044.96 1039.91 1044.24 1039.02 1043.72 1038.02C1043.2 1036.99 1042.9 1035.93 1042.79 1034.8C1042.76 1034.66 1042.76 1034.52 1042.76 1034.35C1042.72 1034.21 1042.72 1034.08 1042.72 1033.94C1042.72 1033.8 1042.72 1033.66 1042.76 1033.49C1042.76 1033.35 1042.76 1033.22 1042.79 1033.08C1042.79 1030.78 1043.72 1028.55 1045.33 1026.93C1046.98 1025.28 1049.18 1024.36 1051.48 1024.36C1053.81 1024.36 1056.01 1025.28 1057.66 1026.93C1059.27 1028.55 1060.2 1030.78 1060.2 1033.08C1060.3 1034.21 1060.17 1035.35 1059.79 1036.41C1059.45 1037.47 1058.9 1038.47 1058.14 1039.33C1057.42 1040.15 1056.53 1040.87 1055.5 1041.36C1054.5 1041.87 1053.4 1042.18 1052.27 1042.25L1052.13 1042.56ZM835.78 1119.97C833.48 1120.17 831.21 1119.42 829.43 1117.94C827.68 1116.43 826.58 1114.3 826.41 1112C826.23 1109.7 826.96 1107.4 828.47 1105.64C829.94 1103.89 832.07 1102.79 834.37 1102.59L834.37 1102.62C836.71 1102.42 838.97 1103.17 840.72 1104.65C842.48 1106.16 843.57 1108.29 843.78 1110.59C843.95 1112.89 843.23 1115.19 841.72 1116.94C840.21 1118.69 838.08 1119.79 835.78 1120L835.78 1119.97ZM607.31 1120L607.31 1119.97C605.01 1120.17 602.74 1119.42 600.99 1117.94C599.2 1116.43 598.14 1114.3 597.93 1112C597.76 1109.7 598.48 1107.4 599.99 1105.64C601.5 1103.89 603.63 1102.79 605.93 1102.59L605.93 1102.62C608.23 1102.42 610.5 1103.14 612.28 1104.61C614.07 1106.09 615.17 1108.22 615.37 1110.52C615.58 1112.82 614.86 1115.09 613.38 1116.87C611.91 1118.66 609.78 1119.76 607.48 1120L607.31 1120ZM387.18 1040.77C386.08 1040.39 385.08 1039.84 384.22 1039.12C383.36 1038.37 382.64 1037.47 382.13 1036.48C381.61 1035.45 381.3 1034.35 381.2 1033.25C381.1 1032.12 381.24 1030.98 381.61 1029.92C381.96 1028.85 382.51 1027.86 383.26 1027C383.98 1026.14 384.88 1025.46 385.91 1024.94C386.9 1024.42 388 1024.15 389.13 1024.05C390.27 1023.98 391.4 1024.12 392.46 1024.46C393.56 1024.8 394.56 1025.39 395.42 1026.11C396.28 1026.83 397 1027.76 397.51 1028.75C398.03 1029.75 398.37 1030.85 398.44 1031.98C398.54 1033.11 398.4 1034.25 398.06 1035.31C397.68 1036.38 397.13 1037.37 396.41 1038.23C395.66 1039.09 394.76 1039.78 393.77 1040.29C392.74 1040.77 391.64 1041.08 390.51 1041.15C389.37 1041.25 388.24 1041.12 387.18 1040.77ZM219.44 918.96C218.31 919.03 217.18 918.89 216.11 918.55C215.01 918.2 214.02 917.62 213.16 916.9C212.3 916.18 211.58 915.25 211.07 914.25C210.52 913.26 210.21 912.16 210.1 911.03L210.14 911.03C209.97 908.72 210.72 906.42 212.23 904.67C213.74 902.96 215.91 901.86 218.21 901.72C220.51 901.55 222.77 902.3 224.52 903.81C226.28 905.32 227.34 907.45 227.55 909.76C227.62 910.92 227.48 912.06 227.1 913.16C226.76 914.25 226.17 915.25 225.42 916.11C224.66 916.97 223.77 917.69 222.74 918.2C221.71 918.72 220.58 919.03 219.44 919.1L219.44 918.96ZM111.97 775.89C109.84 775.82 107.78 775 106.2 773.52C104.66 772.04 103.7 770.02 103.52 767.89C103.35 765.76 103.97 763.63 105.28 761.91C106.58 760.19 108.47 759.03 110.6 758.61L112.45 758.61C114.75 758.61 116.98 759.54 118.6 761.19C120.25 762.8 121.17 765.04 121.17 767.34C121.17 769.64 120.25 771.87 118.6 773.48C116.98 775.13 114.75 776.06 112.45 776.06L111.97 775.89ZM220.23 217.96C219.1 218.06 217.97 217.93 216.87 217.58C215.8 217.2 214.81 216.65 213.92 215.93C213.06 215.18 212.34 214.29 211.82 213.29C211.31 212.26 211 211.16 210.89 210.03L210.93 210.03C210.76 207.73 211.51 205.46 213.02 203.71C214.53 201.96 216.66 200.89 219 200.72C221.3 200.58 223.56 201.34 225.31 202.85C227.07 204.36 228.13 206.49 228.3 208.79C228.4 209.96 228.27 211.09 227.89 212.19C227.55 213.25 226.96 214.29 226.21 215.14C225.45 216 224.52 216.72 223.53 217.24C222.5 217.75 221.37 218.06 220.23 218.13L220.23 217.96ZM522.7 112.08C518.55 112.05 514.53 110.47 511.51 107.62C508.45 104.73 506.63 100.85 506.36 96.7C506.08 92.54 507.39 88.42 510.03 85.19C512.64 81.96 516.42 79.83 520.54 79.28C524.76 79.11 528.92 80.59 532.08 83.41C535.27 86.19 537.23 90.1 537.6 94.33C537.95 98.55 536.68 102.77 534.03 106.07C531.35 109.37 527.54 111.53 523.35 112.08L522.7 112.08ZM355.69 194.81C347.24 194.37 340.72 187.33 340.92 178.88C341.13 170.46 348.03 163.73 356.48 163.73C364.89 163.73 371.79 170.46 372 178.88C372.21 187.33 365.68 194.37 357.23 194.81L355.69 194.81ZM211.2 315.46C211.1 313.33 211.41 311.17 212.13 309.14C212.85 307.11 213.98 305.22 215.43 303.64C216.87 302.03 218.62 300.73 220.54 299.8C222.5 298.87 224.59 298.32 226.76 298.22C231.25 297.6 235.82 298.87 239.36 301.72C242.89 304.57 245.09 308.76 245.44 313.29C245.78 317.83 244.23 322.29 241.18 325.66C238.12 329.02 233.8 330.95 229.23 331.02L226.93 331.02C224.87 331.02 222.84 330.6 220.95 329.85C219.07 329.06 217.35 327.89 215.91 326.45C214.46 325.01 213.33 323.29 212.54 321.43C211.75 319.54 211.37 317.52 211.37 315.46L211.2 315.46ZM1481.68 389.95L1551.97 389.95L1551.97 700.16L1481.68 700.16L1186.18 466.91L1186.18 700.16L1115.72 700.16L1115.72 390.43L1186.49 390.43L1481.99 622.41L1481.68 389.95ZM1215.4 788.8C1219.59 788.8 1223.61 790.41 1226.63 793.27C1229.69 796.12 1231.51 800.03 1231.78 804.19C1232.05 808.34 1230.75 812.46 1228.11 815.69C1225.5 818.92 1221.72 821.05 1217.6 821.6C1213.38 821.77 1209.22 820.29 1206.06 817.48C1202.87 814.7 1200.91 810.75 1200.53 806.52C1200.19 802.3 1201.46 798.11 1204.1 794.81C1206.78 791.51 1210.59 789.35 1214.78 788.8L1215.4 788.8ZM1089.9 924.87C1091.96 924.87 1093.99 925.24 1095.88 926.03C1097.77 926.82 1099.45 927.96 1100.92 929.4C1102.37 930.84 1103.5 932.56 1104.29 934.45C1105.04 936.34 1105.46 938.36 1105.46 940.39C1105.56 942.55 1105.25 944.72 1104.53 946.74C1103.81 948.77 1102.68 950.62 1101.23 952.24C1099.79 953.85 1098.07 955.16 1096.12 956.08C1094.16 957.01 1092.07 957.56 1089.9 957.66C1085.4 958.28 1080.84 957.01 1077.3 954.16C1073.76 951.31 1071.57 947.12 1071.22 942.59C1070.88 938.05 1072.43 933.59 1075.48 930.22C1078.57 926.86 1082.86 924.93 1087.43 924.87L1089.9 924.87ZM918.53 1006.64C920.66 1006.53 922.82 1006.88 924.85 1007.6C926.84 1008.32 928.73 1009.42 930.31 1010.86C931.89 1012.3 933.19 1014.05 934.08 1016.01C935.01 1017.93 935.53 1020.06 935.63 1022.19C935.63 1022.67 935.49 1019.38 935.63 1023.74C935.8 1028.13 934.22 1032.36 931.23 1035.59C928.25 1038.78 924.13 1040.67 919.77 1040.84C915.41 1041.01 911.15 1039.43 907.92 1036.44C904.73 1033.49 902.84 1029.37 902.67 1025.01C902.56 1022.85 902.87 1020.68 903.59 1018.66C904.31 1016.63 905.45 1014.77 906.89 1013.16C908.33 1011.55 910.05 1010.24 912.01 1009.31C913.96 1008.39 916.06 1007.84 918.22 1007.73L918.53 1006.64ZM718.83 1034.62C723.05 1034.49 727.21 1035.96 730.37 1038.75C733.56 1041.56 735.52 1045.48 735.9 1049.7C736.24 1053.93 734.97 1058.11 732.32 1061.41C729.65 1064.74 725.83 1066.87 721.65 1067.46L720.07 1067.42C715.71 1067.59 711.45 1066.01 708.25 1063.06C705.03 1060.07 703.14 1055.95 702.97 1051.59C702.83 1047.23 704.41 1042.97 707.36 1039.74C710.35 1036.55 714.47 1034.66 718.83 1034.49L718.83 1034.62ZM527.85 1012.71C530.05 1012.51 532.28 1012.78 534.38 1013.47C536.47 1014.16 538.43 1015.26 540.08 1016.7C541.76 1018.14 543.13 1019.93 544.09 1021.92C545.05 1023.88 545.6 1026.04 545.74 1028.27C546.08 1034.86 542.44 1041.05 536.5 1043.93C530.56 1046.85 523.46 1045.92 518.44 1041.56C513.46 1037.23 511.54 1030.33 513.6 1024.01C515.63 1017.73 521.26 1013.26 527.85 1012.71ZM355.07 925.62C359.29 925.48 363.45 926.96 366.61 929.74C369.8 932.56 371.76 936.47 372.1 940.7C372.48 944.92 371.21 949.11 368.53 952.41C365.89 955.74 362.08 957.87 357.85 958.45L356.31 958.42C351.95 958.59 347.69 957.01 344.46 954.06C341.27 951.07 339.38 946.95 339.21 942.59C339.04 938.23 340.62 933.97 343.6 930.74C346.56 927.54 350.71 925.66 355.07 925.48L355.07 925.62ZM227.37 789.42C231.56 789.45 235.55 791.03 238.6 793.88C241.62 796.73 243.48 800.65 243.75 804.8C244.03 808.96 242.72 813.08 240.08 816.31C237.44 819.54 233.69 821.67 229.57 822.22C225.31 822.39 221.19 820.91 218 818.1C214.84 815.31 212.85 811.36 212.51 807.17C212.13 802.95 213.43 798.73 216.08 795.43C218.72 792.13 222.57 789.97 226.76 789.42L227.37 789.42ZM156.47 473.61C160.63 473.64 164.64 475.22 167.66 478.07C170.72 480.92 172.54 484.84 172.81 488.99C173.09 493.15 171.78 497.27 169.17 500.5C166.53 503.72 162.75 505.85 158.63 506.4C154.41 506.57 150.26 505.1 147.1 502.28C143.9 499.5 141.95 495.58 141.57 491.36C141.23 487.14 142.5 482.91 145.17 479.62C147.82 476.32 151.63 474.15 155.85 473.61L156.47 473.61ZM625.2 909C625.2 913.22 624.37 917.45 622.76 921.36C621.11 925.28 618.74 928.85 615.72 931.87C612.73 934.86 609.16 937.26 605.25 938.88C601.3 940.49 597.11 941.35 592.85 941.35C579.77 941.35 567.99 933.45 562.98 921.36C557.96 909.27 560.75 895.37 569.98 886.13C579.25 876.89 593.16 874.11 605.25 879.12C617.33 884.1 625.2 895.92 625.2 909ZM848.69 876.65C852.95 876.68 857.14 877.54 861.05 879.16C864.97 880.8 868.54 883.21 871.52 886.23C874.51 889.25 876.88 892.82 878.49 896.77C880.11 900.69 880.9 904.91 880.9 909.14C880.83 922.29 872.86 934.1 860.67 939.08C848.52 944.06 834.54 941.21 825.27 931.87C816.04 922.53 813.32 908.52 818.41 896.4C823.49 884.31 835.4 876.44 848.55 876.51L848.69 876.65ZM958.19 811.95C962.55 811.91 966.88 812.7 970.93 814.35C974.98 816 978.65 818.44 981.74 821.53C984.83 824.62 987.27 828.29 988.92 832.35C990.57 836.4 991.36 840.73 991.32 845.09C991.19 858.28 983.08 870.06 970.86 874.97C958.6 879.84 944.59 876.82 935.42 867.34C926.26 857.86 923.75 843.78 929.04 831.73C934.32 819.64 946.41 811.95 959.6 812.29L958.19 811.95ZM1075.76 746.8C1075.79 751.06 1074.97 755.28 1073.35 759.23C1071.74 763.18 1069.33 766.75 1066.35 769.78C1063.33 772.8 1059.76 775.2 1055.84 776.85C1051.89 778.46 1047.67 779.32 1043.41 779.32C1030.33 779.32 1018.55 771.46 1013.54 759.37C1008.53 747.32 1011.27 733.41 1020.47 724.17C1029.71 714.9 1043.58 712.08 1055.67 717.03C1067.79 722 1075.69 733.75 1075.76 746.8ZM483.52 810.71C487.78 810.75 491.97 811.6 495.88 813.25C499.8 814.9 503.37 817.27 506.36 820.29C509.34 823.32 511.71 826.89 513.33 830.84C514.91 834.75 515.73 838.98 515.73 843.23C515.66 856.35 507.7 868.17 495.51 873.15C483.35 878.13 469.38 875.28 460.11 865.93C450.87 856.59 448.16 842.62 453.24 830.49C458.32 818.37 470.24 810.51 483.39 810.57L483.52 810.71ZM397.51 714.48C401.77 714.48 405.99 715.31 409.91 716.92C413.82 718.57 417.39 720.94 420.38 723.93C423.4 726.95 425.77 730.52 427.42 734.44C429.03 738.35 429.86 742.58 429.86 746.8C429.99 760.02 422.13 771.97 409.94 777.09C397.79 782.21 383.71 779.43 374.37 770.08C365.06 760.78 362.28 746.7 367.4 734.54C372.51 722.38 384.46 714.48 397.68 714.62L397.51 714.48ZM243.86 536.11C247.19 536.11 250.48 536.76 253.57 538.03C256.63 539.3 259.44 541.19 261.78 543.53C264.15 545.9 266 548.68 267.27 551.77C268.54 554.83 269.23 558.12 269.23 561.45C269.16 571.79 262.88 581.03 253.33 584.91C243.79 588.82 232.8 586.56 225.56 579.24C218.31 571.89 216.22 560.9 220.2 551.39C224.22 541.91 233.56 535.73 243.86 535.8L243.86 536.11ZM801.1 389.95L970.93 700.16L895.49 700.16L725.66 389.16L801.1 389.95ZM638.72 389.95L714.16 389.95L544.5 700.16L469.07 700.16L638.72 389.95ZM1278.89 628.7C1283.22 628.32 1287.54 629.69 1290.91 632.51C1294.24 635.32 1296.33 639.38 1296.71 643.74C1297.05 648.07 1295.68 652.39 1292.86 655.76C1290.05 659.09 1286.03 661.18 1281.67 661.6L1281.67 661.53C1277.31 661.91 1272.98 660.53 1269.65 657.72C1266.29 654.9 1264.23 650.88 1263.85 646.52C1263.47 642.16 1264.85 637.83 1267.66 634.5C1270.48 631.13 1274.53 629.07 1278.85 628.63L1278.89 628.7Z" />
</svg>