<?xml version="1.0" standalone="no"?>
<!DOCTYPE svg PUBLIC "-//W3C//DTD SVG 20010904//EN"
 "http://www.w3.org/TR/2001/REC-SVG-20010904/DTD/svg10.dtd">
<svg version="1.0" xmlns="http://www.w3.org/2000/svg"
 width="2095.000000pt" height="862.000000pt" viewBox="0 0 2095.000000 862.000000"
 preserveAspectRatio="xMidYMid meet">

<g transform="translate(0.000000,862.000000) scale(0.100000,-0.100000)"
fill="#000000" stroke="none">
<path d="M7555 8604 c-33 -2 -148 -8 -255 -14 -1928 -105 -4211 -673 -6328
-1574 -340 -145 -952 -428 -952 -441 0 -2 12 0 28 6 485 190 1306 467 1912
648 1638 487 3251 786 4790 886 714 46 1511 48 2195 5 1657 -105 3251 -486
4373 -1046 112 -55 199 -98 195 -94 -26 23 -220 158 -353 245 -953 624 -2034
1035 -3258 1240 -330 55 -653 92 -1087 126 -133 10 -1133 20 -1260 13z"/>
<path d="M14295 6771 l-90 -6 130 -8 c956 -59 1806 -168 2730 -352 1223 -243
2524 -624 3570 -1047 149 -60 277 -111 285 -114 28 -11 -107 75 -241 151
-1419 816 -3382 1299 -5579 1375 -295 10 -649 10 -805 1z"/>
<path d="M6160 4914 c-116 -31 -193 -107 -206 -204 -12 -90 35 -178 116 -220
21 -11 93 -33 160 -50 196 -49 230 -70 230 -139 0 -86 -75 -126 -222 -119 -71
3 -108 11 -158 32 -36 14 -69 28 -74 29 -8 2 -35 -81 -36 -109 0 -17 85 -50
179 -69 246 -50 450 60 451 244 0 97 -48 162 -151 205 -19 8 -89 29 -155 47
-134 35 -166 49 -188 81 -36 51 0 125 71 149 58 19 226 7 298 -22 33 -13 64
-24 69 -24 4 0 16 26 26 58 l18 58 -44 19 c-109 47 -279 62 -384 34z"/>
<path d="M680 4490 l0 -430 65 0 65 0 0 430 0 430 -65 0 -65 0 0 -430z"/>
<path d="M3015 4908 c-3 -7 -4 -200 -3 -428 l3 -415 65 0 65 0 5 315 5 316
265 -316 266 -315 57 -3 57 -3 0 431 0 430 -65 0 -65 0 -2 -320 -3 -319 -265
317 -266 317 -57 3 c-40 2 -59 -1 -62 -10z"/>
<path d="M8650 4850 l0 -70 150 0 150 0 2 -357 3 -358 65 0 65 0 3 357 2 357
143 3 142 3 3 68 3 67 -366 0 -365 0 0 -70z"/>
<path d="M11482 4493 l3 -428 65 0 65 0 0 425 0 425 -68 3 -67 3 2 -428z"/>
<path d="M13720 4850 l0 -70 150 0 150 0 2 -357 3 -358 65 0 65 0 3 357 2 357
143 3 142 3 3 68 3 67 -366 0 -365 0 0 -70z"/>
<path d="M16542 4618 c4 -358 6 -366 103 -463 81 -81 133 -100 275 -100 97 0
110 2 171 31 112 53 176 138 199 266 6 30 9 167 8 309 l-3 254 -67 3 -68 3 0
-283 c0 -276 -1 -284 -24 -333 -43 -92 -101 -125 -220 -125 -108 0 -170 31
-209 103 -21 40 -22 56 -27 337 l-5 295 -68 3 -68 3 3 -303z"/>
<path d="M19390 4850 l0 -70 150 0 150 0 2 -357 3 -358 65 0 65 0 3 357 2 357
143 3 142 3 3 68 3 67 -366 0 -365 0 0 -70z"/>
<path d="M12665 3403 c-443 -57 -776 -276 -957 -630 -97 -187 -136 -353 -145
-598 -11 -328 57 -592 214 -827 65 -98 200 -231 304 -301 400 -266 962 -287
1429 -52 95 48 241 144 309 203 l43 38 -143 231 -142 230 -89 -67 c-106 -81
-240 -149 -363 -186 -121 -36 -325 -45 -439 -19 -231 51 -399 216 -464 455
-24 93 -24 387 1 480 73 271 258 437 526 471 220 28 397 -45 478 -198 32 -59
63 -183 63 -248 0 -27 4 -35 18 -35 24 0 529 107 542 115 18 11 -10 211 -47
330 -125 402 -469 619 -973 613 -74 0 -148 -3 -165 -5z"/>
<path d="M15290 3395 c-277 -46 -496 -158 -686 -349 -239 -240 -357 -517 -371
-876 -26 -653 384 -1186 1012 -1315 262 -54 579 -15 823 100 355 168 601 484
688 885 24 108 27 427 5 535 -109 552 -527 951 -1074 1024 -103 14 -303 12
-397 -4z m375 -590 c39 -8 108 -34 154 -57 472 -238 478 -1007 10 -1253 -97
-51 -201 -75 -323 -75 -192 0 -335 58 -467 189 -118 118 -179 248 -198 424
-41 361 165 681 491 767 89 23 235 25 333 5z"/>
<path d="M660 3371 c0 -7 874 -2352 925 -2484 7 -16 33 -17 398 -15 l390 3
473 1240 c261 682 474 1246 474 1253 0 9 -73 12 -334 12 l-335 0 -19 -52 c-10
-29 -160 -457 -333 -950 -173 -494 -316 -898 -320 -898 -3 0 -151 428 -329
950 l-323 950 -333 0 c-201 0 -334 -4 -334 -9z"/>
<path d="M3700 2125 l0 -1255 995 0 995 0 0 270 0 270 -700 0 -700 0 0 235 0
235 568 2 567 3 0 260 0 260 -567 3 -568 2 0 210 0 210 700 0 700 0 0 275 0
275 -995 0 -995 0 0 -1255z"/>
<path d="M6247 3373 c-4 -3 -7 -568 -7 -1255 l0 -1248 631 0 c684 0 746 4 927
56 104 30 266 105 352 164 241 164 408 432 467 750 24 132 24 428 -1 560 -105
572 -522 925 -1146 970 -143 11 -1213 13 -1223 3z m1272 -563 c232 -56 393
-218 458 -460 25 -93 25 -368 0 -460 -49 -183 -163 -333 -308 -403 -135 -66
-160 -70 -501 -75 l-308 -4 0 711 0 711 288 0 c253 0 297 -3 371 -20z"/>
<path d="M9187 3373 c-4 -3 -7 -568 -7 -1255 l0 -1248 1000 0 1000 0 0 270 0
270 -705 0 -705 0 0 235 0 235 570 0 570 0 0 265 0 265 -570 0 -570 0 0 210 0
210 703 2 702 3 0 270 0 270 -991 3 c-545 1 -994 -1 -997 -5z"/>
<path d="M17320 2125 l0 -1255 310 0 310 0 2 757 3 757 357 -435 c196 -239
363 -441 371 -448 9 -7 35 -11 63 -9 l48 3 371 449 370 450 3 -762 2 -762 305
0 305 0 0 1255 0 1255 -262 0 -263 0 -438 -520 c-241 -286 -442 -520 -446
-520 -5 0 -206 234 -447 520 l-438 520 -263 0 -263 0 0 -1255z"/>
</g>
</svg>
