<?xml version="1.0" standalone="yes"?>
<svg xmlns="http://www.w3.org/2000/svg" width="800" height="353">
<path style="fill:#ffffff; stroke:none;" d="M0 0L0 353L800 353L800 0L0 0z"/>
<path style="fill:#d2e0b0; stroke:none;" d="M310 66L310 67L341 67L310 66M294 67L294 68L300 68L294 67z"/>
<path style="fill:#9dc036; stroke:none;" d="M300 67L300 68L305 68L300 67z"/>
<path style="fill:#7ca632; stroke:none;" d="M112 118L112 119C142.979 111.833 172.725 99.294 204 92.4244C293.946 72.668 386.237 73.3413 472 109C465.851 102.292 456.071 97.7983 448 93.7531C427.649 83.5528 406.294 76.6309 384 72.1998C289.809 53.4791 198.622 84.3934 112 118z"/>
<path style="fill:#9dc036; stroke:none;" d="M346 67L346 68L350 68L346 67z"/>
<path style="fill:#d2e0b0; stroke:none;" d="M350 67L350 68L356 68L350 67M284 68L284 69L288 69L284 68z"/>
<path style="fill:#9dc036; stroke:none;" d="M288 68L288 69L291 69L288 68M358 68L358 69L361 69L358 68z"/>
<path style="fill:#d2e0b0; stroke:none;" d="M361 68L361 69L365 69L361 68M275 69L275 70L279 70L275 69z"/>
<path style="fill:#9dc036; stroke:none;" d="M279.667 69.3333L280.333 69.6667L279.667 69.3333M367.667 69.3333L368.333 69.6667L367.667 69.3333z"/>
<path style="fill:#d2e0b0; stroke:none;" d="M369 69L369 70L372 70L369 69M268 70L268 71L271 71L268 70z"/>
<path style="fill:#9dc036; stroke:none;" d="M271.667 70.3333L272.333 70.6667L271.667 70.3333M374.667 70.3333L375.333 70.6667L374.667 70.3333z"/>
<path style="fill:#d2e0b0; stroke:none;" d="M376 70L376 71L379 71L376 70M261 71L261 72L264 72L261 71z"/>
<path style="fill:#9dc036; stroke:none;" d="M264.667 71.3333L265.333 71.6667L264.667 71.3333M380.667 71.3333L381.333 71.6667L380.667 71.3333z"/>
<path style="fill:#d2e0b0; stroke:none;" d="M382.667 71.3333L383.333 71.6667L382.667 71.3333M255 72L255 73L258 73L255 72z"/>
<path style="fill:#9dc036; stroke:none;" d="M258 72L259 73L258 72M385.667 72.3333L386.333 72.6667L385.667 72.3333z"/>
<path style="fill:#d2e0b0; stroke:none;" d="M387.667 72.3333L388.333 72.6667L387.667 72.3333M250.667 73.3333L251.333 73.6667L250.667 73.3333z"/>
<path style="fill:#9dc036; stroke:none;" d="M252.667 73.3333L253.333 73.6667L252.667 73.3333M390 73L391 74L390 73z"/>
<path style="fill:#d2e0b0; stroke:none;" d="M391.667 73.3333L392.333 73.6667L391.667 73.3333M244 74L244 75L247 75L244 74z"/>
<path style="fill:#9dc036; stroke:none;" d="M247 74L248 75L247 74M395 74L396 75L395 74z"/>
<path style="fill:#d2e0b0; stroke:none;" d="M396.667 74.3333L397.333 74.6667L396.667 74.3333M239 75L239 76L242 76L239 75z"/>
<path style="fill:#9dc036; stroke:none;" d="M242 75L243 76L242 75M399 75L400 76L399 75z"/>
<path style="fill:#d2e0b0; stroke:none;" d="M400 75L401 76L400 75M235.667 76.3333L236.333 76.6667L235.667 76.3333z"/>
<path style="fill:#9dc036; stroke:none;" d="M237 76L238 77L237 76M402.667 76.3333L403.333 76.6667L402.667 76.3333z"/>
<path style="fill:#d2e0b0; stroke:none;" d="M404 76L405 77L404 76M230.667 77.3333L231.333 77.6667L230.667 77.3333z"/>
<path style="fill:#9dc036; stroke:none;" d="M232 77L233 78L232 77M406 77L407 78L406 77z"/>
<path style="fill:#d2e0b0; stroke:none;" d="M407.667 77.3333L408.333 77.6667L407.667 77.3333M226.667 78.3333L227.333 78.6667L226.667 78.3333z"/>
<path style="fill:#9dc036; stroke:none;" d="M228 78L229 79L228 78M409 78L410 79L409 78z"/>
<path style="fill:#d2e0b0; stroke:none;" d="M410.667 78.3333L411.333 78.6667L410.667 78.3333M222 79L223 80L222 79z"/>
<path style="fill:#9dc036; stroke:none;" d="M223.667 79.3333L224.333 79.6667L223.667 79.3333M301 79L301 80L309 80L301 79z"/>
<path style="fill:#d2e0b0; stroke:none;" d="M309 79L309 80L333 80L309 79z"/>
<path style="fill:#9dc036; stroke:none;" d="M333 79L333 80L341 80L333 79M413 79L414 80L413 79z"/>
<path style="fill:#d2e0b0; stroke:none;" d="M414 79L415 80L414 79M217.667 80.3333L218.333 80.6667L217.667 80.3333z"/>
<path style="fill:#9dc036; stroke:none;" d="M219.667 80.3333L220.333 80.6667L219.667 80.3333M284 80L284 81L288 81L284 80z"/>
<path style="fill:#d2e0b0; stroke:none;" d="M288 80L288 81L296 81L288 80M346 80L346 81L354 81L346 80z"/>
<path style="fill:#9dc036; stroke:none;" d="M354 80L354 81L357 81L354 80M416 80L417 81L416 80z"/>
<path style="fill:#d2e0b0; stroke:none;" d="M417 80L418 81L417 80M214 81L215 82L214 81z"/>
<path style="fill:#9dc036; stroke:none;" d="M215.667 81.3333L216.333 81.6667L215.667 81.3333M272 81L272 82L275 82L272 81z"/>
<path style="fill:#d2e0b0; stroke:none;" d="M275 81L275 82L281 82L275 81M360 81L360 82L365 82L360 81z"/>
<path style="fill:#9dc036; stroke:none;" d="M365 81L365 82L368 82L365 81M419 81L420 82L419 81z"/>
<path style="fill:#d2e0b0; stroke:none;" d="M420 81L421 82L420 81M210 82L211 83L210 82z"/>
<path style="fill:#9dc036; stroke:none;" d="M211.667 82.3333L212.333 82.6667L211.667 82.3333M263.667 82.3333L264.333 82.6667L263.667 82.3333z"/>
<path style="fill:#d2e0b0; stroke:none;" d="M265 82L265 83L270 83L265 82M370 82L370 83L374 83L370 82z"/>
<path style="fill:#9dc036; stroke:none;" d="M374 82L374 83L377 83L374 82z"/>
<path style="fill:#d2e0b0; stroke:none;" d="M422.667 82.3333L423.333 82.6667L422.667 82.3333M206.667 83.3333L207.333 83.6667L206.667 83.3333z"/>
<path style="fill:#9dc036; stroke:none;" d="M208 83L209 84L208 83M255.667 83.3333L256.333 83.6667L255.667 83.3333z"/>
<path style="fill:#d2e0b0; stroke:none;" d="M257 83L257 84L261 84L257 83M379 83L379 84L382 84L379 83z"/>
<path style="fill:#9dc036; stroke:none;" d="M382.667 83.3333L383.333 83.6667L382.667 83.3333M424 83L425 84L424 83z"/>
<path style="fill:#d2e0b0; stroke:none;" d="M425 83L426 84L425 83M202.667 84.3333L203.333 84.6667L202.667 84.3333z"/>
<path style="fill:#9dc036; stroke:none;" d="M204 84L205 85L204 84M247.667 84.3333L248.333 84.6667L247.667 84.3333z"/>
<path style="fill:#d2e0b0; stroke:none;" d="M249 84L249 85L253 85L249 84M386 84L386 85L389 85L386 84z"/>
<path style="fill:#9dc036; stroke:none;" d="M389 84L390 85L389 84M427 84L428 85L427 84z"/>
<path style="fill:#d2e0b0; stroke:none;" d="M428 84L429 85L428 84M199 85L200 86L199 85z"/>
<path style="fill:#9dc036; stroke:none;" d="M200.667 85.3333L201.333 85.6667L200.667 85.3333M241.667 85.3333L242.333 85.6667L241.667 85.3333z"/>
<path style="fill:#d2e0b0; stroke:none;" d="M243.667 85.3333L244.333 85.6667L243.667 85.3333M392 85L392 86L395 86L392 85z"/>
<path style="fill:#9dc036; stroke:none;" d="M395 85L396 86L395 85M429 85L430 86L429 85z"/>
<path style="fill:#d2e0b0; stroke:none;" d="M430 85L431 86L430 85M195.667 86.3333L196.333 86.6667L195.667 86.3333z"/>
<path style="fill:#9dc036; stroke:none;" d="M197 86L198 87L197 86M234.667 86.3333L235.333 86.6667L234.667 86.3333z"/>
<path style="fill:#d2e0b0; stroke:none;" d="M236 86L236 87L239 87L236 86M398.667 86.3333L399.333 86.6667L398.667 86.3333z"/>
<path style="fill:#9dc036; stroke:none;" d="M400.667 86.3333L401.333 86.6667L400.667 86.3333M432 86L433 87L432 86z"/>
<path style="fill:#d2e0b0; stroke:none;" d="M433 86L434 87L433 86M192 87L193 88L192 87z"/>
<path style="fill:#9dc036; stroke:none;" d="M193.667 87.3333L194.333 87.6667L193.667 87.3333M229 87L230 88L229 87z"/>
<path style="fill:#d2e0b0; stroke:none;" d="M230 87L230 88L233 88L230 87M403.667 87.3333L404.333 87.6667L403.667 87.3333z"/>
<path style="fill:#9dc036; stroke:none;" d="M405.667 87.3333L406.333 87.6667L405.667 87.3333M434 87L435 88L434 87z"/>
<path style="fill:#d2e0b0; stroke:none;" d="M435 87L436 88L435 87M189 88L190 89L189 88z"/>
<path style="fill:#9dc036; stroke:none;" d="M190 88L191 89L190 88M223.667 88.3333L224.333 88.6667L223.667 88.3333z"/>
<path style="fill:#d2e0b0; stroke:none;" d="M225.667 88.3333L226.333 88.6667L225.667 88.3333M408.667 88.3333L409.333 88.6667L408.667 88.3333z"/>
<path style="fill:#9dc036; stroke:none;" d="M410 88L411 89L410 88M436 88L437 89L436 88z"/>
<path style="fill:#d2e0b0; stroke:none;" d="M437 88L438 89L437 88M186 89L187 90L186 89z"/>
<path style="fill:#9dc036; stroke:none;" d="M187 89L188 90L187 89M218 89L219 90L218 89z"/>
<path style="fill:#d2e0b0; stroke:none;" d="M219 89L219 90L222 90L219 89M412.667 89.3333L413.333 89.6667L412.667 89.3333z"/>
<path style="fill:#9dc036; stroke:none;" d="M414.667 89.3333L415.333 89.6667L414.667 89.3333M439 89L440 90L439 89z"/>
<path style="fill:#d2e0b0; stroke:none;" d="M183 90L184 91L183 90z"/>
<path style="fill:#9dc036; stroke:none;" d="M184 90L185 91L184 90M213 90L214 91L213 90z"/>
<path style="fill:#d2e0b0; stroke:none;" d="M214 90L214 91L217 91L214 90M417 90L418 91L417 90z"/>
<path style="fill:#9dc036; stroke:none;" d="M418.667 90.3333L419.333 90.6667L418.667 90.3333M441 90L442 91L441 90z"/>
<path style="fill:#d2e0b0; stroke:none;" d="M179.667 91.3333L180.333 91.6667L179.667 91.3333z"/>
<path style="fill:#9dc036; stroke:none;" d="M181 91L182 92L181 91M208 91L209 92L208 91z"/>
<path style="fill:#d2e0b0; stroke:none;" d="M209 91L209 92L212 92L209 91M421 91L422 92L421 91z"/>
<path style="fill:#9dc036; stroke:none;" d="M422.667 91.3333L423.333 91.6667L422.667 91.3333M443 91L444 92L443 91z"/>
<path style="fill:#d2e0b0; stroke:none;" d="M444 91L445 92L444 91M176 92L177 93L176 92z"/>
<path style="fill:#9dc036; stroke:none;" d="M177 92L178 93L177 92M203.667 92.3333L204.333 92.6667L203.667 92.3333z"/>
<path style="fill:#d2e0b0; stroke:none;" d="M205.667 92.3333L206.333 92.6667L205.667 92.3333M425 92L426 93L425 92z"/>
<path style="fill:#9dc036; stroke:none;" d="M426 92L427 93L426 92M445 92L446 93L445 92z"/>
<path style="fill:#d2e0b0; stroke:none;" d="M446 92L447 93L446 92M173 93L174 94L173 93z"/>
<path style="fill:#9dc036; stroke:none;" d="M174 93L175 94L174 93M199 93L200 94L199 93z"/>
<path style="fill:#d2e0b0; stroke:none;" d="M200.667 93.3333L201.333 93.6667L200.667 93.3333M428.667 93.3333L429.333 93.6667L428.667 93.3333z"/>
<path style="fill:#9dc036; stroke:none;" d="M430 93L431 94L430 93M447 93L448 94L447 93z"/>
<path style="fill:#d2e0b0; stroke:none;" d="M448 93L449 94L448 93M170 94L171 95L170 94z"/>
<path style="fill:#9dc036; stroke:none;" d="M171 94L172 95L171 94M194.667 94.3333L195.333 94.6667L194.667 94.3333z"/>
<path style="fill:#d2e0b0; stroke:none;" d="M196.667 94.3333L197.333 94.6667L196.667 94.3333M432 94L433 95L432 94z"/>
<path style="fill:#9dc036; stroke:none;" d="M433 94L434 95L433 94M449 94L450 95L449 94z"/>
<path style="fill:#d2e0b0; stroke:none;" d="M167 95L168 96L167 95z"/>
<path style="fill:#9dc036; stroke:none;" d="M168 95L169 96L168 95M190.667 95.3333L191.333 95.6667L190.667 95.3333z"/>
<path style="fill:#d2e0b0; stroke:none;" d="M192 95L193 96L192 95M435.667 95.3333L436.333 95.6667L435.667 95.3333z"/>
<path style="fill:#9dc036; stroke:none;" d="M437 95L438 96L437 95M451 95L452 96L451 95z"/>
<path style="fill:#d2e0b0; stroke:none;" d="M164.667 96.3333L165.333 96.6667L164.667 96.3333z"/>
<path style="fill:#9dc036; stroke:none;" d="M166 96L167 97L166 96M186 96L187 97L186 96z"/>
<path style="fill:#d2e0b0; stroke:none;" d="M187.667 96.3333L188.333 96.6667L187.667 96.3333M438.667 96.3333L439.333 96.6667L438.667 96.3333z"/>
<path style="fill:#9dc036; stroke:none;" d="M440 96L441 97L440 96z"/>
<path style="fill:#d2e0b0; stroke:none;" d="M453 96L454 97L453 96M162 97L163 98L162 97z"/>
<path style="fill:#9dc036; stroke:none;" d="M163 97L164 98L163 97M182 97L183 98L182 97z"/>
<path style="fill:#d2e0b0; stroke:none;" d="M183.667 97.3333L184.333 97.6667L183.667 97.3333M441.667 97.3333L442.333 97.6667L441.667 97.3333z"/>
<path style="fill:#9dc036; stroke:none;" d="M443 97L444 98L443 97z"/>
<path style="fill:#d2e0b0; stroke:none;" d="M455 97L456 98L455 97M159 98L160 99L159 98z"/>
<path style="fill:#9dc036; stroke:none;" d="M160 98L161 99L160 98M178.667 98.3333L179.333 98.6667L178.667 98.3333z"/>
<path style="fill:#d2e0b0; stroke:none;" d="M180 98L181 99L180 98M445 98L446 99L445 98z"/>
<path style="fill:#9dc036; stroke:none;" d="M446 98L447 99L446 98M456 98L457 99L456 98z"/>
<path style="fill:#d2e0b0; stroke:none;" d="M457 98L458 99L457 98M156 99L157 100L156 99z"/>
<path style="fill:#9dc036; stroke:none;" d="M157 99L158 100L157 99M175 99L176 100L175 99z"/>
<path style="fill:#d2e0b0; stroke:none;" d="M176 99L177 100L176 99M447.667 99.3333L448.333 99.6667L447.667 99.3333z"/>
<path style="fill:#9dc036; stroke:none;" d="M449 99L450 100L449 99M458 99L459 100L458 99z"/>
<path style="fill:#d2e0b0; stroke:none;" d="M154 100L155 101L154 100z"/>
<path style="fill:#9dc036; stroke:none;" d="M171 100L172 101L171 100z"/>
<path style="fill:#d2e0b0; stroke:none;" d="M172.667 100.333L173.333 100.667L172.667 100.333M450 100L451 101L450 100z"/>
<path style="fill:#9dc036; stroke:none;" d="M451 100L452 101L451 100z"/>
<path style="fill:#d2e0b0; stroke:none;" d="M460 100L461 101L460 100M151 101L152 102L151 101z"/>
<path style="fill:#9dc036; stroke:none;" d="M152 101L153 102L152 101M167 101L168 102L167 101z"/>
<path style="fill:#d2e0b0; stroke:none;" d="M168.667 101.333L169.333 101.667L168.667 101.333M453 101L454 102L453 101z"/>
<path style="fill:#9dc036; stroke:none;" d="M454 101L455 102L454 101M461 101L462 102L461 101z"/>
<path style="fill:#d2e0b0; stroke:none;" d="M462 101L463 102L462 101M148 102L149 103L148 102z"/>
<path style="fill:#9dc036; stroke:none;" d="M149 102L150 103L149 102M164 102L165 103L164 102z"/>
<path style="fill:#d2e0b0; stroke:none;" d="M165 102L166 103L165 102M456 102L457 103L456 102z"/>
<path style="fill:#9dc036; stroke:none;" d="M463 102L464 103L463 102z"/>
<path style="fill:#d2e0b0; stroke:none;" d="M146 103L147 104L146 103z"/>
<path style="fill:#9dc036; stroke:none;" d="M160 103L161 104L160 103z"/>
<path style="fill:#d2e0b0; stroke:none;" d="M161.667 103.333L162.333 103.667L161.667 103.333M458 103L459 104L458 103z"/>
<path style="fill:#9dc036; stroke:none;" d="M459 103L460 104L459 103z"/>
<path style="fill:#d2e0b0; stroke:none;" d="M465 103L466 104L465 103M143 104L144 105L143 104z"/>
<path style="fill:#9dc036; stroke:none;" d="M144 104L145 105L144 104M157 104L158 105L157 104z"/>
<path style="fill:#d2e0b0; stroke:none;" d="M158 104L159 105L158 104z"/>
<path style="fill:#9dc036; stroke:none;" d="M461 104L462 105L461 104M466 104L467 105L466 104z"/>
<path style="fill:#d2e0b0; stroke:none;" d="M467 104L468 105L467 104M140 105L141 106L140 105z"/>
<path style="fill:#9dc036; stroke:none;" d="M141 105L142 106L141 105M153 105L154 106L153 105z"/>
<path style="fill:#d2e0b0; stroke:none;" d="M154.667 105.333L155.333 105.667L154.667 105.333M463 105L464 106L463 105z"/>
<path style="fill:#9dc036; stroke:none;" d="M464 105L465 106L464 105z"/>
<path style="fill:#d2e0b0; stroke:none;" d="M468 105L469 106L468 105M138 106L139 107L138 106z"/>
<path style="fill:#9dc036; stroke:none;" d="M139 106L140 107L139 106M150 106L151 107L150 106z"/>
<path style="fill:#d2e0b0; stroke:none;" d="M151 106L152 107L151 106M465 106L466 107L465 106z"/>
<path style="fill:#9dc036; stroke:none;" d="M466 106L467 107L466 106M469 106L470 107L469 106z"/>
<path style="fill:#d2e0b0; stroke:none;" d="M470 106L471 107L470 106z"/>
<path style="fill:#9dc036; stroke:none;" d="M136 107L137 108L136 107M147 107L148 108L147 107z"/>
<path style="fill:#d2e0b0; stroke:none;" d="M148 107L149 108L148 107M467 107L468 108L467 107z"/>
<path style="fill:#9dc036; stroke:none;" d="M468 107L469 108L468 107z"/>
<path style="fill:#d2e0b0; stroke:none;" d="M471 107L472 108L471 107M133 108L134 109L133 108z"/>
<path style="fill:#9dc036; stroke:none;" d="M134 108L135 109L134 108M144 108L145 109L144 108z"/>
<path style="fill:#d2e0b0; stroke:none;" d="M145 108L146 109L145 108z"/>
<path style="fill:#9dc036; stroke:none;" d="M470 108L471 109L470 108M472.333 108.667L472.667 109.333L472.333 108.667z"/>
<path style="fill:#d2e0b0; stroke:none;" d="M473 108L475 110L473 108M131 109L132 110L131 109z"/>
<path style="fill:#9dc036; stroke:none;" d="M140.667 109.333L141.333 109.667L140.667 109.333z"/>
<path style="fill:#d2e0b0; stroke:none;" d="M142 109L143 110L142 109z"/>
<path style="fill:#7ca632; stroke:none;" d="M473 109L474 110L473 109z"/>
<path style="fill:#d2e0b0; stroke:none;" d="M128 110L129 111L128 110z"/>
<path style="fill:#9dc036; stroke:none;" d="M129 110L130 111L129 110M137 110L138 111L137 110z"/>
<path style="fill:#d2e0b0; stroke:none;" d="M138.667 110.333L139.333 110.667L138.667 110.333z"/>
<path style="fill:#9dc036; stroke:none;" d="M474 110L474 111L477 112L474 110z"/>
<path style="fill:#d2e0b0; stroke:none;" d="M126 111L127 112L126 111z"/>
<path style="fill:#9dc036; stroke:none;" d="M127 111L128 112L127 111M134 111L135 112L134 111z"/>
<path style="fill:#d2e0b0; stroke:none;" d="M135.667 111.333L136.333 111.667L135.667 111.333M475 111L476 112L475 111M477 111L477 113L479 113L477 111M124 112L125 113L124 112z"/>
<path style="fill:#9dc036; stroke:none;" d="M131 112L132 113L131 112z"/>
<path style="fill:#d2e0b0; stroke:none;" d="M132 112L133 113L132 112M121 113L122 114L121 113z"/>
<path style="fill:#9dc036; stroke:none;" d="M122 113L123 114L122 113M128 113L129 114L128 113z"/>
<path style="fill:#d2e0b0; stroke:none;" d="M129 113L130 114L129 113M119 114L120 115L119 114z"/>
<path style="fill:#9dc036; stroke:none;" d="M120 114L121 115L120 114M125 114L126 115L125 114z"/>
<path style="fill:#d2e0b0; stroke:none;" d="M126.667 114.333L127.333 114.667L126.667 114.333M117 115L118 116L117 115z"/>
<path style="fill:#9dc036; stroke:none;" d="M118 115L119 116L118 115M123 115L124 116L123 115z"/>
<path style="fill:#d2e0b0; stroke:none;" d="M124 115L125 116L124 115M115 116L116 117L115 116z"/>
<path style="fill:#9dc036; stroke:none;" d="M120 116L121 117L120 116z"/>
<path style="fill:#d2e0b0; stroke:none;" d="M121 116L122 117L121 116z"/>
<path style="fill:#9dc036; stroke:none;" d="M113 117L114 118L113 117M117 117L118 118L117 117z"/>
<path style="fill:#d2e0b0; stroke:none;" d="M118 117L119 118L118 117M497 118L497 119L520 118C513.841 115.415 503.42 116.472 497 118M110 118L111 119L110 118z"/>
<path style="fill:#9dc036; stroke:none;" d="M111.333 118.667L111.667 119.333L111.333 118.667M114 118L115 119L114 118z"/>
<path style="fill:#d2e0b0; stroke:none;" d="M115 118L116 119L115 118z"/>
<path style="fill:#9dc036; stroke:none;" d="M504 118L504 119L508 119L504 118z"/>
<path style="fill:#7ca632; stroke:none;" d="M508 118L508 119C567.097 119 621.178 141.763 677 157C667.87 147.772 650.944 143.335 639 138.808C597.915 123.235 551.637 118 508 118z"/>
<path style="fill:#9dc036; stroke:none;" d="M527 118L527 119L533 119L527 118z"/>
<path style="fill:#d2e0b0; stroke:none;" d="M533 118L533 119L540 119L533 118M108 119L109 120L108 119z"/>
<path style="fill:#9dc036; stroke:none;" d="M109.333 119.667L109.667 120.333L109.333 119.667z"/>
<path style="fill:#7ca632; stroke:none;" d="M110 119L111 120L110 119z"/>
<path style="fill:#d2e0b0; stroke:none;" d="M112 119L113 120L112 119M511 119L511 120L517 120L511 119z"/>
<path style="fill:#9dc036; stroke:none;" d="M517 119L517 120L520 120L517 119M543 119L543 120L547 120L543 119z"/>
<path style="fill:#d2e0b0; stroke:none;" d="M547 119L547 120L552 120L547 119M106 120L108 122L106 120z"/>
<path style="fill:#9dc036; stroke:none;" d="M107 120L108 121L107 120z"/>
<path style="fill:#7ca632; stroke:none;" d="M108 120L109 121L108 120z"/>
<path style="fill:#d2e0b0; stroke:none;" d="M110 120L111 121L110 120M523 120L523 121L527 121L523 120z"/>
<path style="fill:#9dc036; stroke:none;" d="M527 120L527 121L530 121L527 120M554 120L554 121L557 121L554 120z"/>
<path style="fill:#d2e0b0; stroke:none;" d="M557 120L557 121L561 121L557 120M104.333 121.667L104.667 122.333L104.333 121.667z"/>
<path style="fill:#9dc036; stroke:none;" d="M105.667 121.333L106.333 121.667L105.667 121.333z"/>
<path style="fill:#d2e0b0; stroke:none;" d="M532 121L532 122L536 122L532 121z"/>
<path style="fill:#9dc036; stroke:none;" d="M536.667 121.333L537.333 121.667L536.667 121.333M563.667 121.333L564.333 121.667L563.667 121.333z"/>
<path style="fill:#d2e0b0; stroke:none;" d="M565 121L565 122L569 122L565 121M102 122L101 124L103 124L102 122z"/>
<path style="fill:#9dc036; stroke:none;" d="M103 122L104 123L103 122z"/>
<path style="fill:#d2e0b0; stroke:none;" d="M540 122L540 123L544 123L540 122z"/>
<path style="fill:#9dc036; stroke:none;" d="M544.667 122.333L545.333 122.667L544.667 122.333M571.667 122.333L572.333 122.667L571.667 122.333z"/>
<path style="fill:#d2e0b0; stroke:none;" d="M573 122L573 123L576 123L573 122M547 123L547 124L550 124L547 123z"/>
<path style="fill:#9dc036; stroke:none;" d="M550.667 123.333L551.333 123.667L550.667 123.333M577.667 123.333L578.333 123.667L577.667 123.333z"/>
<path style="fill:#d2e0b0; stroke:none;" d="M579 123L579 124L582 124L579 123M554 124L554 125L557 125L554 124z"/>
<path style="fill:#9dc036; stroke:none;" d="M557.667 124.333L558.333 124.667L557.667 124.333M583.667 124.333L584.333 124.667L583.667 124.333z"/>
<path style="fill:#d2e0b0; stroke:none;" d="M585.667 124.333L586.333 124.667L585.667 124.333M560 125L560 126L563 126L560 125z"/>
<path style="fill:#9dc036; stroke:none;" d="M563 125L564 126L563 125M589 125L590 126L589 125z"/>
<path style="fill:#d2e0b0; stroke:none;" d="M590.667 125.333L591.333 125.667L590.667 125.333M566.667 126.333L567.333 126.667L566.667 126.333z"/>
<path style="fill:#9dc036; stroke:none;" d="M568.667 126.333L569.333 126.667L568.667 126.333M594 126L595 127L594 126z"/>
<path style="fill:#d2e0b0; stroke:none;" d="M595.667 126.333L596.333 126.667L595.667 126.333M571 127L571 128L574 128L571 127z"/>
<path style="fill:#9dc036; stroke:none;" d="M574 127L575 128L574 127M599 127L600 128L599 127z"/>
<path style="fill:#d2e0b0; stroke:none;" d="M600.667 127.333L601.333 127.667L600.667 127.333M576 128L576 129L579 129L576 128z"/>
<path style="fill:#9dc036; stroke:none;" d="M579 128L580 129L579 128M603 128L604 129L603 128z"/>
<path style="fill:#d2e0b0; stroke:none;" d="M604.667 128.333L605.333 128.667L604.667 128.333M581.667 129.333L582.333 129.667L581.667 129.333z"/>
<path style="fill:#9dc036; stroke:none;" d="M583.667 129.333L584.333 129.667L583.667 129.333M607 129L608 130L607 129z"/>
<path style="fill:#d2e0b0; stroke:none;" d="M608.667 129.333L609.333 129.667L608.667 129.333M586.667 130.333L587.333 130.667L586.667 130.333z"/>
<path style="fill:#9dc036; stroke:none;" d="M588 130L589 131L588 130M611 130L612 131L611 130z"/>
<path style="fill:#d2e0b0; stroke:none;" d="M612.667 130.333L613.333 130.667L612.667 130.333M591 131L592 132L591 131z"/>
<path style="fill:#9dc036; stroke:none;" d="M592.667 131.333L593.333 131.667L592.667 131.333M615 131L616 132L615 131z"/>
<path style="fill:#d2e0b0; stroke:none;" d="M616.667 131.333L617.333 131.667L616.667 131.333M595.667 132.333L596.333 132.667L595.667 132.333z"/>
<path style="fill:#9dc036; stroke:none;" d="M597 132L598 133L597 132M619 132L620 133L619 132z"/>
<path style="fill:#d2e0b0; stroke:none;" d="M620 132L621 133L620 132M599.667 133.333L600.333 133.667L599.667 133.333z"/>
<path style="fill:#9dc036; stroke:none;" d="M601 133L602 134L601 133M622 133L623 134L622 133z"/>
<path style="fill:#d2e0b0; stroke:none;" d="M623.667 133.333L624.333 133.667L623.667 133.333M603.667 134.333L604.333 134.667L603.667 134.333z"/>
<path style="fill:#9dc036; stroke:none;" d="M605 134L606 135L605 134M625.667 134.333L626.333 134.667L625.667 134.333z"/>
<path style="fill:#d2e0b0; stroke:none;" d="M627 134L628 135L627 134M607.667 135.333L608.333 135.667L607.667 135.333z"/>
<path style="fill:#9dc036; stroke:none;" d="M609 135L610 136L609 135M629 135L630 136L629 135z"/>
<path style="fill:#d2e0b0; stroke:none;" d="M630 135L631 136L630 135M611.667 136.333L612.333 136.667L611.667 136.333z"/>
<path style="fill:#9dc036; stroke:none;" d="M613 136L614 137L613 136M632 136L633 137L632 136z"/>
<path style="fill:#d2e0b0; stroke:none;" d="M633 136L634 137L633 136M615 137L616 138L615 137z"/>
<path style="fill:#9dc036; stroke:none;" d="M616.667 137.333L617.333 137.667L616.667 137.333M635 137L636 138L635 137z"/>
<path style="fill:#d2e0b0; stroke:none;" d="M636 137L637 138L636 137M619 138L620 139L619 138z"/>
<path style="fill:#9dc036; stroke:none;" d="M620 138L621 139L620 138M638 138L639 139L638 138z"/>
<path style="fill:#d2e0b0; stroke:none;" d="M639 138L640 139L639 138M622.667 139.333L623.333 139.667L622.667 139.333z"/>
<path style="fill:#9dc036; stroke:none;" d="M624 139L625 140L624 139M640 139L641 140L640 139z"/>
<path style="fill:#d2e0b0; stroke:none;" d="M641 139L642 140L641 139M626 140L627 141L626 140z"/>
<path style="fill:#9dc036; stroke:none;" d="M627 140L628 141L627 140M643 140L644 141L643 140z"/>
<path style="fill:#d2e0b0; stroke:none;" d="M644 140L645 141L644 140M629.667 141.333L630.333 141.667L629.667 141.333z"/>
<path style="fill:#9dc036; stroke:none;" d="M631 141L632 142L631 141M646 141L647 142L646 141z"/>
<path style="fill:#d2e0b0; stroke:none;" d="M647 141L648 142L647 141M632.667 142.333L633.333 142.667L632.667 142.333z"/>
<path style="fill:#9dc036; stroke:none;" d="M634 142L635 143L634 142M648 142L649 143L648 142z"/>
<path style="fill:#d2e0b0; stroke:none;" d="M649 142L650 143L649 142M636 143L637 144L636 143z"/>
<path style="fill:#9dc036; stroke:none;" d="M637 143L638 144L637 143M651 143L652 144L651 143z"/>
<path style="fill:#d2e0b0; stroke:none;" d="M652 143L653 144L652 143M639 144L640 145L639 144z"/>
<path style="fill:#9dc036; stroke:none;" d="M640 144L641 145L640 144M653 144L654 145L653 144z"/>
<path style="fill:#d2e0b0; stroke:none;" d="M654 144L655 145L654 144M642 145L643 146L642 145z"/>
<path style="fill:#9dc036; stroke:none;" d="M643 145L644 146L643 145M655 145L656 146L655 145z"/>
<path style="fill:#d2e0b0; stroke:none;" d="M656 145L657 146L656 145M645.667 146.333L646.333 146.667L645.667 146.333z"/>
<path style="fill:#9dc036; stroke:none;" d="M647 146L648 147L647 146M658 146L659 147L658 146z"/>
<path style="fill:#d2e0b0; stroke:none;" d="M649 147L650 148L649 147z"/>
<path style="fill:#9dc036; stroke:none;" d="M650 147L651 148L650 147M660 147L661 148L660 147z"/>
<path style="fill:#d2e0b0; stroke:none;" d="M661 147L662 148L661 147z"/>
<path style="fill:#9dc036; stroke:none;" d="M652 148L653 149L652 148M662 148L663 149L662 148z"/>
<path style="fill:#d2e0b0; stroke:none;" d="M663 148L664 149L663 148M654 149L655 150L654 149z"/>
<path style="fill:#9dc036; stroke:none;" d="M655 149L656 150L655 149M664 149L665 150L664 149z"/>
<path style="fill:#d2e0b0; stroke:none;" d="M665 149L666 150L665 149M657 150L658 151L657 150z"/>
<path style="fill:#9dc036; stroke:none;" d="M658 150L659 151L658 150M666 150L667 151L666 150z"/>
<path style="fill:#d2e0b0; stroke:none;" d="M667 150L668 151L667 150M660 151L661 152L660 151z"/>
<path style="fill:#9dc036; stroke:none;" d="M661 151L662 152L661 151M668 151L669 152L668 151z"/>
<path style="fill:#d2e0b0; stroke:none;" d="M669 151L670 152L669 151M663 152L664 153L663 152z"/>
<path style="fill:#9dc036; stroke:none;" d="M664 152L665 153L664 152M670 152L671 153L670 152z"/>
<path style="fill:#d2e0b0; stroke:none;" d="M671 152L672 153L671 152M666 153L667 154L666 153z"/>
<path style="fill:#9dc036; stroke:none;" d="M672 153L673 154L672 153z"/>
<path style="fill:#d2e0b0; stroke:none;" d="M668 154L669 155L668 154z"/>
<path style="fill:#9dc036; stroke:none;" d="M669 154L670 155L669 154M674 154L675 155L674 154z"/>
<path style="fill:#d2e0b0; stroke:none;" d="M671 155L672 156L671 155z"/>
<path style="fill:#9dc036; stroke:none;" d="M672 155L673 156L672 155z"/>
<path style="fill:#d2e0b0; stroke:none;" d="M676 155L677 156L676 155M673 156L674 157L673 156z"/>
<path style="fill:#9dc036; stroke:none;" d="M674 156L675 157L674 156M677.333 156.667L677.667 157.333L677.333 156.667z"/>
<path style="fill:#d2e0b0; stroke:none;" d="M678 156L679 157L678 156M676 157L677 158L676 157z"/>
<path style="fill:#7ca632; stroke:none;" d="M678 157L679 158L678 157z"/>
<path style="fill:#9dc036; stroke:none;" d="M679.333 157.667L679.667 158.333L679.333 157.667z"/>
<path style="fill:#d2e0b0; stroke:none;" d="M680 157L681 160L682 160L680 157M678 158L679 159L678 158z"/>
<path style="fill:#7ca632; stroke:none;" d="M680 158L681 159L680 158z"/>
<path style="fill:#9dc036; stroke:none;" d="M682 159L683 160L682 159z"/>
<path style="fill:#d2e0b0; stroke:none;" d="M683 159L683 161L685 161L683 159M119 169L119 194L124 194L124 169L119 169M189 194L189 193L185 193L185 170L189 170C182.147 167.754 180.621 192.602 189 194M203 169L203 170L207 170L203 169M272.667 169.333L273.333 169.667L272.667 169.333z"/>
<path style="fill:#9fa1a2; stroke:none;" d="M281 185C278.033 190.883 273.473 189.994 268 188L267 192C272.032 193.595 289.615 194.834 283.957 184.109C281.552 179.552 275.586 180.922 272.752 177.341C268.434 171.888 282.414 174.497 284 175L285 171C279.831 169.548 259.437 169.904 268.742 180.348C271.458 183.396 277.209 184.131 281 185z"/>
<path style="fill:#d2e0b0; stroke:none;" d="M279.667 169.333L280.333 169.667L279.667 169.333M342 169L342 170L362 170L362 173C350.804 173.133 354 184.47 354 193L351 193C351 183.486 354.138 173.043 342 173L342 174L350 174L350 194L355 194L355 174L363 174L363 169L342 169M421 169L421 170L425 170L421 169M483 169L483 174L492 174L492 173L484 173L484 170L504 170L483 169M562 169L562 170L566 170L562 169M579 169L579 185L580 185L580 170L583 170L583 186L584 186L584 169L579 169M650 174L650 173L642 173L642 170L662 170L662 173L654 173C657.878 174.623 665.899 171.104 659.847 169.317C650.974 166.697 633.328 173.941 650 174z"/>
<path style="fill:#9fa1a2; stroke:none;" d="M120 170L120 193L123 193L123 170L120 170M185 170L185 193L189 193L189 177C194.229 182.678 198.878 191.746 207 193L207 170L203 170L203 187C198.522 181.101 192.714 171.215 185 170z"/>
<path style="fill:#d2e0b0; stroke:none;" d="M283 170L284 171L283 170z"/>
<path style="fill:#9fa1a2; stroke:none;" d="M342 170L342 173C353.834 173.14 351 183.964 351 193L354 193C354 184.845 351.1 173.355 362 173L362 170L342 170M421 170L421 193L425 193L425 170L421 170M484 170L484 173L492 173L492 193L496 193L496 173L504 173L504 170L484 170M562 170C562 176.025 560.535 184.52 564.089 189.786C568.043 195.644 578.459 195.164 581.821 188.945C584.54 183.916 583 175.566 583 170L580 170C580 174.866 581.104 181.471 578.682 185.891C575.781 191.185 568.919 190.431 566.742 184.981C565.004 180.626 566 174.615 566 170L562 170M642 170L642 173L650 173L650 193L654 193L654 173L662 173L662 170L642 170z"/>
<path style="fill:#d2e0b0; stroke:none;" d="M268 171L269 172L268 171M284 172L285 173L284 172M191 173L192 174L191 173M279 173L280 174L279 173M496 173L496 174L504 174L496 173M192 174L193 175L192 174M271 174L272 175L271 174M282 174L283 175L282 174M193 175L194 176L193 175M266 175L266 178L267 178L266 175M271 177L272 178L271 177M190 178L191 179L190 178M273 178L274 179L273 178M191 179L192 180L191 179M196 179L197 180L196 179M267 179L268 180L267 179M276.667 179.333L277.333 179.667L276.667 179.333M192 180L193 181L192 180M197 180L198 181L197 180M280 180L281 181L280 180M198 181L199 182L198 181M269 181L270 182L269 181M282 181L283 182L282 181M271 182L272 183L271 182M283 182L284 183L283 182M275 183L276 184L275 183M284 183L285 184L284 183M195 184L196 185L195 184M278 184L279 185L278 184M566.333 184.667L566.667 185.333L566.333 184.667M196 185L197 186L196 185M280 185L281 186L280 185M197 186L198 187L197 186M202 186L203 187L202 186M562.333 186.667L562.667 187.333L562.333 186.667M578 187L579 188L578 187M577 188L578 189L577 188M582 188L583 189L582 188M267 189L268 190L267 189M271 189L272 190L271 189M284 189L285 190L284 189M563 189L564 190L563 189M569 189L570 190L569 189M200 190L201 191L200 190M581 190L582 191L581 190M201 191L202 192L201 191M580 191L581 192L580 191M202 192L203 193L202 192M268 192L269 193L268 192M281 192L282 193L281 192M566 192L567 193L566 192M203 193L203 194L207 194L203 193M270.667 193.333L271.333 193.667L270.667 193.333M279 193L280 194L279 193M421 193L421 194L425 194L421 193M492 193L492 194L496 194L492 193M568 193L569 194L568 193M576 193L577 194L576 193M650 193L650 194L654 194L650 193M455 211L455 212L464 212L455 211M529 211L529 212L537 212L529 211M119 212L119 213L138 213L119 212M175 212L175 213L194 214L175 212M203 282L204 282L204 213L259 213L259 228C268.393 205.614 235.872 212 223 212C218.487 212 208.294 210.105 204.603 213.028C201.061 215.833 203 226.913 203 231L203 282M276 212L276 213L310 213L276 212M358 212L358 213L412 213L412 228C413.355 224.771 414.577 215.546 411.397 213.028C408.302 210.577 400.731 212 397 212L358 212M449.667 212.333L450.333 212.667L449.667 212.333z"/>
<path style="fill:#9fa1a2; stroke:none;" d="M480 260C466.565 265.568 446.914 274.961 441.684 253C438.672 240.356 449.315 222.889 463.985 229.009C469.271 231.215 469.089 238.556 473.43 240.307C476.365 241.492 484.967 239.731 486.393 236.686C493.464 221.584 469.524 212 459 212C424.325 212 407.838 261.316 440 279.095C451.008 285.18 464.605 285.016 476 280.121C479.346 278.684 485.434 276.119 485.978 271.96C486.49 268.055 482.025 263.061 480 260z"/>
<path style="fill:#d2e0b0; stroke:none;" d="M467.667 212.333L468.333 212.667L467.667 212.333M524.667 212.333L525.333 212.667L524.667 212.333z"/>
<path style="fill:#9fa1a2; stroke:none;" d="M526 212.465C480.395 220.687 495.253 291.735 541 282.904C586.323 274.156 571.519 204.258 526 212.465z"/>
<path style="fill:#d2e0b0; stroke:none;" d="M541.667 212.333L542.333 212.667L541.667 212.333M584 212L584 213L602 216C597.484 210.578 590.49 212 584 212M648 212L648 213L662 213L648 212z"/>
<path style="fill:#9fa1a2; stroke:none;" d="M119 213C124.694 229.832 131.518 246.331 137.681 263C139.501 267.922 141.413 278.757 145.702 281.972C148.908 284.375 164.137 284.357 166.925 281.397C171.413 276.632 173.424 266.104 175.681 260C181.381 244.586 189.293 229.015 193 213L174 213L156 265L143.053 228L137.298 214.028L119 213M204 213L204 283L259 283L259 268L220 268L220 254L252 254L252 240L220 240L220 228L259 228L259 213L204 213z"/>
<path style="fill:#7ca632; stroke:none;" d="M275 213L275 283C290.53 283 313.497 285.728 327 277.031C347.152 264.051 346.172 228.685 325 217.324C310.697 209.649 290.701 213 275 213z"/>
<path style="fill:#9dc036; stroke:none;" d="M313 213L314 214L313 213z"/>
<path style="fill:#d2e0b0; stroke:none;" d="M314.667 213.333L315.333 213.667L314.667 213.333z"/>
<path style="fill:#9dc036; stroke:none;" d="M357 213L366 238L371 249L369 253L372 251L371 255L405 254L405 240L373 240L373 228L412 228L412 213L357 213z"/>
<path style="fill:#d2e0b0; stroke:none;" d="M446 213L447 214L446 213M471 213L472 214L471 213M521 213L522 214L521 213M545 213L546 214L545 213z"/>
<path style="fill:#9fa1a2; stroke:none;" d="M584 213L584 283L601 283L601 241C605.568 245.773 616.311 264.364 623.086 264.364C630.824 264.364 640.387 245.872 646 241L646 283L661.972 281.397L663 263L663 213C658.541 213 652.352 211.896 648.17 213.603C639.976 216.948 628.001 234.278 624 242C616.866 233.833 608.687 219.001 598.985 214.028C594.829 211.897 588.548 213 584 213z"/>
<path style="fill:#d2e0b0; stroke:none;" d="M119 214L120 215L119 214M138 214L139 215L138 214z"/>
<path style="fill:#9dc036; stroke:none;" d="M318 214L319 215L318 214z"/>
<path style="fill:#d2e0b0; stroke:none;" d="M319 214L320 215L319 214M443 214L444 215L443 214M473 214L474 215L473 214M518 214L519 215L518 214M548 214L549 215L548 214M173 215L174 216L173 215M192.333 215.667L192.667 216.333L192.333 215.667z"/>
<path style="fill:#9dc036; stroke:none;" d="M321 215L322 216L321 215z"/>
<path style="fill:#d2e0b0; stroke:none;" d="M322 215L323 216L322 215M441 215L442 216L441 215M475 215L476 216L475 215M516 215L517 216L516 215M550 215L551 216L550 215M645 215L646 216L645 215z"/>
<path style="fill:#9dc036; stroke:none;" d="M323 216L324 217L323 216z"/>
<path style="fill:#d2e0b0; stroke:none;" d="M324 216L325 217L324 216M439 216L440 217L439 216M477 216L478 217L477 216M514 216L515 217L514 216M644 216L645 217L644 216M120 217L121 218L120 217M139 217L140 218L139 217z"/>
<path style="fill:#9dc036; stroke:none;" d="M325 217L326 218L325 217z"/>
<path style="fill:#d2e0b0; stroke:none;" d="M478 217L479 218L478 217M553 217L554 218L553 217M643 217L644 218L643 217M172 218L173 219L172 218M191 218L192 219L191 218M327 218L328 219L327 218M436 218L437 219L436 218M479 218L480 219L479 218M511 218L512 219L511 218M121 219L122 220L121 219M140.333 219.667L140.667 220.333L140.333 219.667z"/>
<path style="fill:#9dc036; stroke:none;" d="M328 219L329 220L328 219z"/>
<path style="fill:#7ca632; stroke:none;" d="M357 219L357 282L385 282C381.922 275.976 380.73 268.595 373 268L371 254L372 251L369 253L371 249L357 219z"/>
<path style="fill:#d2e0b0; stroke:none;" d="M480 219L481 220L480 219M510 219L511 220L510 219M556 219L557 220L556 219M604 219L605 220L604 219M330 220L331 221L330 220M481 220L482 221L481 220M509 220L510 221L509 220M557 220L558 221L557 220M605 220L606 221L605 220M171 221L172 222L171 221M190 221L191 222L190 221M331 221L332 222L331 221M482 221L483 222L482 221M508 221L509 222L508 221M558 221L559 222L558 221M606 221L607 222L606 221M640 221L641 222L640 221M122 222L123 223L122 222M141.333 222.667L141.667 223.333L141.333 222.667z"/>
<path style="fill:#9dc036; stroke:none;" d="M332 222L333 223L332 222z"/>
<path style="fill:#d2e0b0; stroke:none;" d="M507 222L508 223L507 222M559 222L560 223L559 222M639 222L640 223L639 222M189 223L190 224L189 223M333 223L334 224L333 223M506 223L507 224L506 223M560 223L561 224L560 223M638 223L639 224L638 223M170 224L171 225L170 224M334 224L335 225L334 224M430 224L431 225L430 224M484 224L485 225L484 224M505 224L506 225L505 224M561 224L562 225L561 224M123 225L124 226L123 225M142.333 225.667L142.667 226.333L142.333 225.667M335 225L336 226L335 225M429 225L430 226L429 225M504 225L505 226L504 225M169.333 226.667L169.667 227.333L169.333 226.667M188 226L189 227L188 226z"/>
<path style="fill:#9dc036; stroke:none;" d="M335 226L336 227L335 226z"/>
<path style="fill:#d2e0b0; stroke:none;" d="M610 226L611 227L610 226M124 227L125 228L124 227M336 227L337 228L336 227M428 227L429 228L428 227M485 227L486 228L485 227M503 227L504 228L503 227M563 227L564 228L563 227M611 227L612 228L611 227M635 227L636 228L635 227M143.333 228.667L143.667 229.333L143.333 228.667M187.333 228.667L187.667 229.333L187.333 228.667M220 228L220 240L252 240L252 239L221 239L220 228M292 228L292 257L293.603 266.972L307 268L307 267L293 267C293 255.828 296.311 238.274 292 228z"/>
<path style="fill:#ffffff; stroke:none;" d="M293 228L293 267C299.885 267 308.793 268.485 314.996 264.91C325.938 258.605 326.984 239.423 316.906 231.803C310.197 226.731 300.888 228 293 228z"/>
<path style="fill:#d2e0b0; stroke:none;" d="M309.667 228.333L310.333 228.667L309.667 228.333z"/>
<path style="fill:#9dc036; stroke:none;" d="M311 228L312 229L311 228z"/>
<path style="fill:#d2e0b0; stroke:none;" d="M373 228L373 240L405 240L405 239L374 239L373 228M427 228L428 229L427 228M453.667 228.333L454.333 228.667L453.667 228.333M463 228L464 229L463 228M502 228L503 229L502 228M529 228L529 229L538 229L529 228M612 228L613 229L612 228M634 228L635 229L634 228M168 229L169 230L168 229M313 229L314 230L313 229z"/>
<path style="fill:#9dc036; stroke:none;" d="M337 229L338 230L337 229z"/>
<path style="fill:#d2e0b0; stroke:none;" d="M451 229L452 230L451 229M465 229L466 230L465 229M526 229L527 230L526 229z"/>
<path style="fill:#ffffff; stroke:none;" d="M527 229.653C504.89 236.588 516.073 273.117 539 266.2C562.119 259.225 551.053 222.109 527 229.653z"/>
<path style="fill:#d2e0b0; stroke:none;" d="M540 229L541 230L540 229M564 229L565 230L564 229M633 229L634 230L633 229M125 230L126 231L125 230M315 230L316 231L315 230M426 230L427 231L426 230M449 230L450 231L449 230M467 230L468 231L467 230M486 230L487 231L486 230M501 230L502 231L501 230M524 230L525 231L524 230M542 230L543 231L542 230M144 231L145 232L144 231M186 231L187 232L186 231M316 231L317 232L316 231z"/>
<path style="fill:#9dc036; stroke:none;" d="M317 231L318 232L317 231M338 231L339 232L338 231z"/>
<path style="fill:#d2e0b0; stroke:none;" d="M468 231L469 232L468 231M565 231L566 232L565 231M167 232L168 233L167 232z"/>
<path style="fill:#9dc036; stroke:none;" d="M318 232L319 233L318 232z"/>
<path style="fill:#d2e0b0; stroke:none;" d="M446 232L447 233L446 232M500.333 232.667L500.667 233.333L500.333 232.667M521 232L522 233L521 232M545 232L546 233L545 232M615 232L616 233L615 232M126 233L127 234L126 233z"/>
<path style="fill:#9dc036; stroke:none;" d="M319 233L320 234L319 233z"/>
<path style="fill:#d2e0b0; stroke:none;" d="M339 233L340 234L339 233M425 233L426 234L425 233M469 233L470 234L469 233M520 233L521 234L520 233M546 233L547 234L546 233M566 233L567 234L566 233M616 233L617 234L616 233M630 233L631 234L630 233M145 234L146 235L145 234M185 234L186 235L185 234z"/>
<path style="fill:#9dc036; stroke:none;" d="M339 234L340 235L339 234z"/>
<path style="fill:#d2e0b0; stroke:none;" d="M487 234L487 238L488 238L487 234M519 234L520 235L519 234M547 234L548 235L547 234M617 234L618 235L617 234M629 234L630 235L629 234M127 235L128 236L127 235M166 235L167 236L166 235M320 235L321 236L320 235M444 235L445 236L444 235M470 235L471 236L470 235M499 235L500 236L499 235M518 235L519 236L518 235M628 235L629 236L628 235M184.333 236.667L184.667 237.333L184.333 236.667z"/>
<path style="fill:#9dc036; stroke:none;" d="M321 236L322 237L321 236z"/>
<path style="fill:#d2e0b0; stroke:none;" d="M340 236L341 237L340 236M424 236L425 237L424 236M443 236L444 237L443 236M567 236L568 237L567 236M627 236L628 237L627 236M146 237L147 238L146 237z"/>
<path style="fill:#9dc036; stroke:none;" d="M340 237L341 238L340 237z"/>
<path style="fill:#d2e0b0; stroke:none;" d="M517 237L518 238L517 237M549 237L550 238L549 237M128 238L129 239L128 238M165 238L166 239L165 238z"/>
<path style="fill:#9dc036; stroke:none;" d="M322 238L323 239L322 238z"/>
<path style="fill:#d2e0b0; stroke:none;" d="M486 238L487 239L486 238M498.333 238.667L498.667 239.333L498.333 238.667M183 239L184 240L183 239M322 239L323 240L322 239M442 239L443 240L442 239M471 239L474 242L474 241L471 239M481.667 239.333L482.333 239.667L481.667 239.333M516 239L517 240L516 239M550 239L551 240L550 239M568 239L568 242L569 242L568 239M621 239L622 240L621 239M147 240L148 241L147 240M252 240L252 254L253 254L252 240M341 240L341 243L342 243L341 240M405 240L405 254L406 254L405 240M423 240L423 243L424 243L423 240M476.667 240.333L477.333 240.667L476.667 240.333M622 240L623 241L622 240M624 240L625 241L624 240M129 241L130 242L129 241M164 241L165 242L164 241z"/>
<path style="fill:#9dc036; stroke:none;" d="M323 241L324 242L323 241z"/>
<path style="fill:#d2e0b0; stroke:none;" d="M515.333 241.667L515.667 242.333L515.333 241.667M601 241L601 282L602 282C602 270.304 605.511 251.75 601 241M623 241L624 242L623 241M644 241L645 283L646 283L646 253L644 241M182 242L183 243L182 242M323 242L323 245L324 245L323 242M441 242L441 246L442 246L441 242M551.333 242.667L551.667 243.333L551.333 242.667M130 243L131 244L130 243M148 243L149 244L148 243z"/>
<path style="fill:#9dc036; stroke:none;" d="M341 243L341 253L342 253L341 243z"/>
<path style="fill:#d2e0b0; stroke:none;" d="M163 244L164 245L163 244M181 244L182 245L181 244M497 244L497 251L498 251L497 244M604 244L605 245L604 244M605 245L606 246L605 245M641 245L642 246L641 245M131 246L132 247L131 246M149 246L150 247L149 246M162.333 246.667L162.667 247.333L162.333 246.667M640 246L641 247L640 246M180 247L181 248L180 247M639 247L640 248L639 247M132 249L133 250L132 249M150 249L151 250L150 249M161 249L162 250L161 249M179.333 249.667L179.667 250.333L179.333 249.667M441 249L441 253L442 253L441 249M608 249L609 250L608 249z"/>
<path style="fill:#9dc036; stroke:none;" d="M368 250L369 251L368 250z"/>
<path style="fill:#d2e0b0; stroke:none;" d="M609 250L610 251L609 250M133 251L134 252L133 251M323 251L323 254L324 254L323 251M551.333 251.667L551.667 252.333L551.333 251.667M610 251L611 252L610 251M636 251L637 252L636 251M151 252L152 253L151 252M160 252L161 253L160 252M178 252L179 253L178 252M423 252L423 256L424 256L423 252M515.333 252.667L515.667 253.333L515.333 252.667M635 252L636 253L635 252M341 253L341 256L342 256L341 253M634 253L635 254L634 253M134 254L135 255L134 254M220 254L220 268L259 268L259 283L260 283L260 267L221 267L221 255L252 255L220 254z"/>
<path style="fill:#9dc036; stroke:none;" d="M323 254L324 255L323 254z"/>
<path style="fill:#d2e0b0; stroke:none;" d="M374 254L374 255L405 255L374 254M568.333 254.667L568.667 255.333L568.333 254.667M152 255L153 256L152 255M159 255L160 256L159 255M177 255L178 256L177 255M373 255L374.028 266.397L384 268L412 268L412 283L413 283L413 267L374 267L373 255M498.333 255.667L498.667 256.333L498.333 255.667M550 255L551 256L550 255M613 255L614 256L613 255M322 256L323 257L322 256M442 256L443 257L442 256M516 256L517 257L516 256M614 256L615 257L614 256M135 257L136 258L135 257M176.333 257.667L176.667 258.333L176.333 257.667z"/>
<path style="fill:#9dc036; stroke:none;" d="M340 257L341 258L340 257z"/>
<path style="fill:#d2e0b0; stroke:none;" d="M549 257L550 258L549 257M615 257L616 258L615 257M631 257L632 258L631 257M153 258L154 259L153 258M158 258L159 259L158 258M321 258L322 259L321 258M340.333 258.667L340.667 259.333L340.333 258.667M424.333 258.667L424.667 259.333L424.333 258.667M443 258L444 259L443 258M517 258L518 259L517 258M567.333 258.667L567.667 259.333L567.333 258.667M630 258L631 259L630 258M136.333 259.667L136.667 260.333L136.333 259.667M479 259L480 260L479 259M499 259L500 260L499 259M518 259L519 260L518 259M548 259L549 260L548 259M629 259L630 260L629 259M175 260L176 261L175 260z"/>
<path style="fill:#9dc036; stroke:none;" d="M320 260L321 261L320 260z"/>
<path style="fill:#d2e0b0; stroke:none;" d="M480 260L481 261L480 260M154 261L155 262L154 261M157 261L158 262L157 261M319 261L320 262L319 261z"/>
<path style="fill:#9dc036; stroke:none;" d="M339 261L340 262L339 261z"/>
<path style="fill:#d2e0b0; stroke:none;" d="M445 261L446 262L445 261M476 261L477 262L476 261M566.333 261.667L566.667 262.333L566.333 261.667M618 261L619 262L618 261M137 262L138 263L137 262M318 262L319 263L318 262M339 262L340 263L339 262M425 262L426 263L425 262M446 262L447 263L446 262M475 262L476 263L475 262M481 262L482 263L481 262M500 262L501 263L500 262M619 262L620 263L619 262M627 262L628 263L627 262M174 263L175 264L174 263M317 263L318 264L317 263z"/>
<path style="fill:#9dc036; stroke:none;" d="M338 263L339 264L338 263z"/>
<path style="fill:#d2e0b0; stroke:none;" d="M447 263L448 264L447 263M473 263L474 264L473 263M544 263L545 264L544 263M626 263L627 264L626 263M155.667 264.333L156.333 264.667L155.667 264.333z"/>
<path style="fill:#9dc036; stroke:none;" d="M316 264L317 265L316 264z"/>
<path style="fill:#d2e0b0; stroke:none;" d="M338 264L339 265L338 264M426 264L427 265L426 264M448 264L449 265L448 264M471 264L472 265L471 264M501 264L502 265L501 264M523 264L524 265L523 264M543 264L544 265L543 264M565 264L566 265L565 264M625 264L626 265L625 264M138 265L139 266L138 265M173 265L174 266L173 265M314 265L315 266L314 265M450 265L451 266L450 265M469 265L470 266L469 265M483 265L484 266L483 265M525 265L526 266L525 265M541 265L542 266L541 265M622 265L622 266L625 266L622 265M311 266L312 267L311 266z"/>
<path style="fill:#9dc036; stroke:none;" d="M312 266L313 267L312 266z"/>
<path style="fill:#d2e0b0; stroke:none;" d="M337 266L338 267L337 266M427 266L428 267L427 266M452 266L453 267L452 266M466.667 266.333L467.333 266.667L466.667 266.333M502 266L503 267L502 266M527.667 266.333L528.333 266.667L527.667 266.333M538.667 266.333L539.333 266.667L538.667 266.333M564 266L565 267L564 266M139.333 267.667L139.667 268.333L139.333 267.667z"/>
<path style="fill:#9dc036; stroke:none;" d="M292 267L293 268L292 267M307.667 267.333L308.333 267.667L307.667 267.333M336 267L337 268L336 267M373 267L374 268L373 267z"/>
<path style="fill:#d2e0b0; stroke:none;" d="M456 267L456 268L463 268L456 267M484 267L485 268L484 267M172 268L173 269L172 268M336 268L337 269L336 268z"/>
<path style="fill:#9dc036; stroke:none;" d="M378 268L385 282L357 282L357 283L412 283L412 268L378 268z"/>
<path style="fill:#d2e0b0; stroke:none;" d="M428 268L429 269L428 268M485 268L486 269L485 268M503 268L504 269L503 268M335 269L336 270L335 269z"/>
<path style="fill:#9dc036; stroke:none;" d="M374 269L375 270L374 269z"/>
<path style="fill:#d2e0b0; stroke:none;" d="M504 269L505 270L504 269M562 269L563 270L562 269M140 270L141 271L140 270M171.333 270.667L171.667 271.333L171.333 270.667z"/>
<path style="fill:#9dc036; stroke:none;" d="M334 270L335 271L334 270z"/>
<path style="fill:#d2e0b0; stroke:none;" d="M486 270L487 271L486 270M561 270L562 271L561 270z"/>
<path style="fill:#9dc036; stroke:none;" d="M333 271L334 272L333 271M332 272L333 273L332 272z"/>
<path style="fill:#d2e0b0; stroke:none;" d="M431 272L432 273L431 272M487 272L488 273L487 272M141 273L142 274L141 273M170 273L171 274L170 273z"/>
<path style="fill:#9dc036; stroke:none;" d="M331 273L332 274L331 273z"/>
<path style="fill:#d2e0b0; stroke:none;" d="M432 273L433 274L432 273M486 273L487 274L486 273z"/>
<path style="fill:#9dc036; stroke:none;" d="M330 274L331 275L330 274z"/>
<path style="fill:#d2e0b0; stroke:none;" d="M433 274L434 275L433 274M485 274L486 275L485 274M142.333 275.667L142.667 276.333L142.333 275.667z"/>
<path style="fill:#9dc036; stroke:none;" d="M329 275L330 276L329 275z"/>
<path style="fill:#d2e0b0; stroke:none;" d="M434 275L435 276L434 275M169 276L170 277L169 276M328 276L329 277L328 276M482 276L483 277L482 276M555 276L556 277L555 276z"/>
<path style="fill:#9dc036; stroke:none;" d="M326 277L327 278L326 277z"/>
<path style="fill:#d2e0b0; stroke:none;" d="M437 277L438 278L437 277M512 277L513 278L512 277M554 277L555 278L554 277M143 278L144 279L143 278M168 278L169 279L168 278z"/>
<path style="fill:#9dc036; stroke:none;" d="M324 278L325 279L324 278z"/>
<path style="fill:#d2e0b0; stroke:none;" d="M325 278L326 279L325 278M438 278L439 279L438 278M479 278L480 279L479 278M552 278L553 279L552 278z"/>
<path style="fill:#9dc036; stroke:none;" d="M322 279L323 280L322 279z"/>
<path style="fill:#d2e0b0; stroke:none;" d="M323 279L324 280L323 279M440 279L441 280L440 279M477 279L478 280L477 279M515 279L516 280L515 279z"/>
<path style="fill:#9dc036; stroke:none;" d="M319 280L320 281L319 280z"/>
<path style="fill:#d2e0b0; stroke:none;" d="M320 280L321 281L320 280M442 280L443 281L442 280M475 280L476 281L475 280M517 280L518 281L517 280M548.667 280.333L549.333 280.667L548.667 280.333M144 281L145 282L144 281M167 281L168 282L167 281z"/>
<path style="fill:#9dc036; stroke:none;" d="M316 281L317 282L316 281z"/>
<path style="fill:#d2e0b0; stroke:none;" d="M317 281L318 282L317 281M444.667 281.333L445.333 281.667L444.667 281.333M472 281L473 282L472 281M520 281L521 282L520 281M546 281L547 282L546 281z"/>
<path style="fill:#9dc036; stroke:none;" d="M293 282L293 283L310 283L293 282z"/>
<path style="fill:#d2e0b0; stroke:none;" d="M310 282L310 283L314 283L310 282M447.667 282.333L448.333 282.667L447.667 282.333M468.667 282.333L469.333 282.667L468.667 282.333M522.667 282.333L523.333 282.667L522.667 282.333M543 282L544 283L543 282M662 282L663 283L662 282M452 283L452 284L455 284L452 283M463 283L463 284L466 284L463 283M526 283L526 284L530 284L526 283M537 283L537 284L540 284L537 283z"/>
</svg>
