<?xml version="1.0" standalone="no"?>
<!DOCTYPE svg PUBLIC "-//W3C//DTD SVG 20010904//EN"
 "http://www.w3.org/TR/2001/REC-SVG-20010904/DTD/svg10.dtd">
<svg version="1.0" xmlns="http://www.w3.org/2000/svg"
 width="746.000000pt" height="405.000000pt" viewBox="0 0 746.000000 405.000000"
 preserveAspectRatio="xMidYMid meet">

<g transform="translate(0.000000,405.000000) scale(0.100000,-0.100000)"
fill="#000000" stroke="none">
<path d="M3723 4000 c-61 -13 -144 -55 -196 -100 -45 -40 -107 -145 -107 -181
0 -26 -11 -49 -24 -49 -27 0 -134 -61 -168 -96 -110 -115 -107 -288 8 -394 48
-44 56 -47 73 -26 10 12 5 21 -25 48 -155 140 -83 367 136 423 45 11 45 12 52
64 25 168 182 280 377 269 130 -8 233 -69 293 -175 16 -29 35 -53 41 -53 6 0
31 10 56 22 56 27 146 35 206 18 52 -15 128 -77 142 -117 6 -15 15 -46 19 -68
9 -40 9 -40 64 -46 71 -8 121 -32 164 -79 84 -93 53 -233 -65 -300 -41 -24
-55 -25 -229 -30 -177 -5 -185 -6 -185 -25 0 -19 7 -20 185 -20 174 0 188 1
238 24 67 30 135 104 152 166 14 51 8 120 -15 165 -35 68 -129 132 -214 146
-36 6 -40 10 -50 48 -37 148 -232 235 -399 177 l-52 -18 -20 32 c-85 137 -277
210 -457 175z"/>
<path d="M3707 3893 c-58 -19 -131 -81 -157 -133 -24 -47 -29 -108 -10 -120
21 -13 40 0 40 26 0 33 26 94 53 122 31 33 72 53 147 72 42 11 65 21 65 31 0
20 -79 22 -138 2z"/>
<path d="M3752 3473 c-5 -10 -12 -30 -15 -44 -5 -19 -17 -29 -47 -38 -35 -10
-44 -9 -80 9 -45 23 -47 22 -110 -32 -46 -40 -46 -46 -8 -100 10 -14 9 -24 -4
-51 -13 -28 -24 -36 -55 -42 -55 -10 -63 -21 -63 -80 0 -59 8 -70 63 -80 31
-6 42 -14 55 -42 13 -27 14 -37 4 -51 -38 -53 -38 -62 -2 -93 73 -62 74 -63
119 -39 36 18 47 19 79 9 32 -9 41 -18 53 -53 l14 -41 79 0 79 0 11 39 c9 33
17 41 51 53 37 13 43 13 81 -8 l42 -22 38 30 c75 59 77 64 49 106 -24 35 -25
37 -9 70 14 29 24 36 63 43 l46 9 0 70 0 70 -46 8 c-39 7 -49 14 -63 44 -15
33 -15 36 2 61 10 15 22 32 25 39 4 7 -15 30 -47 58 l-54 46 -45 -22 c-42 -21
-47 -21 -83 -7 -32 13 -41 23 -50 54 l-11 39 -76 3 c-65 2 -77 0 -85 -15z
m124 -63 c8 -36 14 -41 84 -67 55 -20 57 -20 90 -2 43 22 40 23 69 -2 l24 -20
-21 -29 c-27 -36 -27 -34 3 -95 22 -44 31 -51 68 -60 37 -10 42 -14 42 -40 0
-26 -5 -30 -43 -40 -39 -9 -45 -15 -69 -67 l-25 -57 22 -31 c12 -17 21 -32 19
-33 -2 -1 -14 -10 -25 -20 -20 -17 -23 -17 -57 -1 -34 17 -39 16 -97 -1 -66
-20 -74 -27 -84 -67 -6 -25 -11 -28 -44 -28 -36 0 -39 3 -48 36 -8 32 -15 38
-64 54 -69 24 -81 24 -118 3 -29 -17 -31 -17 -51 1 -26 23 -26 31 -2 64 18 27
18 28 -8 82 -24 50 -30 56 -69 64 -39 8 -42 11 -42 41 0 29 4 32 42 41 37 8
45 15 69 63 l28 54 -19 28 c-25 34 -25 41 0 64 20 18 22 18 60 -4 32 -18 43
-20 61 -11 12 7 40 17 63 24 35 10 42 17 50 49 9 35 12 37 48 37 35 0 39 -3
44 -30z"/>
<path d="M3756 3255 c-21 -7 -52 -26 -68 -42 -92 -86 -70 -211 47 -269 48 -23
64 -26 116 -21 108 10 179 77 179 170 0 58 -19 98 -62 130 -64 47 -138 59
-212 32z m153 -55 c40 -20 71 -69 71 -112 0 -36 -34 -83 -73 -101 -101 -48
-217 9 -217 108 0 100 118 157 219 105z"/>
<path d="M2789 2777 l-326 -282 253 -3 c140 -1 254 -6 254 -10 0 -4 -83 -78
-184 -165 -101 -87 -191 -165 -199 -175 -15 -16 -12 -21 39 -62 30 -25 59 -44
65 -42 6 1 163 134 349 295 l339 292 -259 5 -260 5 191 164 191 164 -54 48
c-29 27 -57 48 -63 48 -5 0 -157 -127 -336 -282z"/>
<path d="M5232 2803 c-427 -217 -444 -224 -463 -207 -25 22 -24 44 2 44 45 0
59 18 59 73 0 58 -12 77 -46 77 -31 0 -39 17 -20 39 25 27 19 46 -24 85 -43
39 -62 43 -100 21 -34 -19 -40 -18 -40 5 0 36 -35 60 -88 60 -57 0 -92 -21
-92 -56 0 -28 -5 -29 -40 -9 -38 22 -57 18 -100 -21 -42 -38 -50 -63 -25 -84
22 -18 18 -29 -12 -36 -45 -11 -63 -33 -63 -76 0 -45 28 -78 65 -78 29 0 30
-7 10 -34 -22 -29 -18 -49 13 -78 48 -45 68 -51 107 -32 20 9 37 15 38 13 2
-2 7 -17 13 -34 7 -24 17 -31 44 -35 32 -6 15 -16 -237 -143 -150 -75 -273
-142 -273 -148 0 -7 72 -120 95 -147 2 -2 26 8 54 22 28 14 53 26 56 26 3 0 5
-409 5 -910 l0 -910 227 0 c216 0 225 1 210 18 -19 21 -67 126 -67 147 0 12
-16 15 -80 15 l-80 0 2 877 3 877 645 327 645 327 650 -328 650 -328 3 -288
c2 -224 5 -291 16 -303 7 -9 26 -38 41 -64 21 -36 32 -46 44 -41 9 3 35 11 59
16 l42 10 0 279 c0 185 3 279 10 279 6 0 33 -11 60 -25 l49 -25 52 76 c28 42
49 77 47 78 -1 2 -139 72 -305 157 l-303 154 0 203 0 202 -215 0 -215 0 0 -90
c0 -49 -3 -90 -7 -90 -5 0 -159 76 -343 168 l-335 169 -443 -224z m-685 117
c9 -48 60 -65 106 -36 20 13 25 13 46 -5 23 -18 23 -20 7 -38 -10 -11 -16 -31
-14 -48 2 -23 10 -30 46 -41 33 -11 42 -19 42 -37 0 -18 -7 -25 -32 -30 -18
-4 -39 -12 -45 -17 -18 -14 -16 -49 3 -76 15 -21 14 -24 -8 -41 -20 -17 -25
-17 -43 -5 -43 30 -99 12 -109 -36 -5 -28 -9 -31 -38 -28 -25 2 -33 9 -39 32
-5 16 -14 33 -21 37 -20 13 -61 10 -84 -5 -17 -12 -23 -12 -43 3 -23 17 -23
19 -6 44 27 41 13 74 -35 87 -33 9 -40 15 -40 36 0 25 4 28 52 38 36 8 47 46
23 83 -17 26 -17 27 5 45 20 16 24 16 43 3 42 -29 107 -8 107 35 0 23 9 30 42
30 24 0 30 -5 35 -30z m83 -419 c0 -5 -7 -11 -15 -15 -9 -3 -15 0 -15 9 0 8 7
15 15 15 8 0 15 -4 15 -9z"/>
<path d="M4430 2822 c-122 -65 -63 -232 82 -232 102 0 174 99 130 179 -36 67
-138 92 -212 53z m148 -55 c50 -46 9 -127 -66 -127 -54 0 -92 31 -92 74 0 75
98 107 158 53z"/>
<path d="M325 2916 c-37 -16 -70 -52 -84 -89 -8 -19 -11 -373 -11 -1127 l0
-1098 -38 -7 c-52 -8 -98 -38 -122 -77 -18 -29 -20 -51 -20 -190 l0 -158 271
0 c254 0 271 1 264 18 -5 9 -10 46 -13 82 -3 45 -12 75 -28 100 -48 72 -56
115 -61 305 -8 265 13 364 101 478 l36 47 -36 33 c-49 43 -64 82 -64 170 0
130 54 179 205 185 84 4 119 -1 231 -33 17 -5 27 4 59 59 75 128 188 219 340
273 79 28 82 28 368 31 l287 3 0 452 c0 508 3 485 -77 534 l-38 23 -770 0
c-619 -1 -776 -3 -800 -14z m1323 -302 c22 -15 22 -19 22 -244 0 -194 -2 -231
-16 -244 -14 -14 -75 -16 -527 -16 -448 0 -515 2 -535 16 -22 15 -22 19 -22
240 0 211 1 225 20 244 19 19 33 20 528 20 443 0 510 -2 530 -16z"/>
<path d="M5905 2416 c-31 -13 -95 -79 -95 -96 0 -6 -57 -10 -140 -10 -157 0
-192 -9 -231 -58 l-24 -31 -265 -3 -265 -3 -57 -28 c-110 -54 -169 -160 -147
-265 15 -75 61 -130 141 -171 67 -34 67 -34 238 -39 164 -5 173 -6 201 -29 16
-14 29 -31 29 -38 0 -8 -25 -37 -55 -66 -36 -34 -80 -94 -126 -171 l-70 -118
-38 30 c-48 39 -117 60 -195 60 -85 0 -106 -16 -106 -81 0 -99 25 -118 152
-119 53 0 99 -4 102 -8 2 -4 -25 -23 -62 -42 -82 -43 -161 -121 -198 -196 -29
-59 -29 -59 -32 -283 -3 -252 4 -295 65 -354 26 -25 33 -40 33 -70 0 -49 21
-90 55 -105 17 -8 89 -12 211 -12 l186 0 29 29 c28 28 29 34 29 115 0 85 0 86
30 101 25 13 121 15 730 15 694 0 702 0 731 -21 27 -19 29 -25 29 -90 0 -80
16 -119 55 -137 17 -8 89 -12 211 -12 l186 0 29 29 c24 25 29 38 29 79 0 42 4
52 26 67 14 9 38 42 52 73 24 52 26 71 30 222 5 199 -7 292 -49 370 -39 74
-85 118 -187 179 l-84 49 112 4 c108 3 113 4 136 31 19 22 24 39 24 82 0 76
-12 85 -116 85 -96 0 -142 -15 -190 -61 l-32 -31 -70 119 c-104 174 -182 242
-337 290 -55 16 -104 18 -590 18 -504 0 -533 -1 -589 -20 l-60 -20 -46 46
c-59 59 -100 69 -278 69 -131 0 -141 1 -193 27 -111 57 -134 190 -47 269 61
56 75 59 343 62 l250 3 20 -37 c39 -72 57 -79 231 -82 85 -2 154 -7 154 -12 0
-18 66 -83 97 -96 19 -8 69 -14 123 -14 l90 0 0 50 0 49 68 3 67 3 0 35 0 35
-67 3 -68 3 0 79 0 79 68 3 67 3 0 35 0 35 -67 3 -68 3 0 49 0 50 -92 0 c-54
-1 -106 -6 -123 -14z m715 -878 c73 -36 125 -93 193 -211 32 -54 57 -101 57
-104 0 -32 -286 -353 -315 -353 -6 0 -21 10 -33 23 l-22 23 76 74 c42 41 103
109 137 150 59 74 60 75 35 80 -15 3 -40 24 -60 50 -22 29 -55 56 -92 75 -78
39 -182 42 -264 6 -48 -22 -132 -99 -132 -122 0 -5 -205 -9 -455 -9 l-456 0
32 -47 c18 -27 79 -95 136 -153 l103 -104 -22 -23 c-12 -13 -26 -23 -31 -23
-17 0 -178 163 -237 240 -89 117 -88 102 -19 221 64 110 103 157 157 191 75
46 87 47 637 45 l520 -2 55 -27z m-67 -254 c37 -19 67 -44 67 -56 0 -4 -72 -8
-160 -8 -88 0 -160 4 -160 8 0 12 29 36 65 55 40 22 146 22 188 1z m-1426
-465 c78 -29 153 -120 153 -186 l0 -23 -176 0 -176 0 -29 29 c-26 27 -29 36
-29 98 0 40 5 74 12 81 15 15 205 16 245 1z m2051 -1 c7 -7 12 -41 12 -84 0
-68 -2 -74 -31 -98 -30 -26 -32 -26 -206 -26 l-175 0 7 37 c4 21 13 49 21 64
18 36 91 97 129 108 47 14 229 13 243 -1z m-588 -173 l0 -35 -560 0 -560 0 0
35 0 35 560 0 560 0 0 -35z"/>
<path d="M1405 1786 c-87 -28 -169 -80 -218 -137 -21 -23 -71 -101 -113 -172
l-76 -129 -18 30 c-22 36 -73 75 -119 91 -19 6 -69 11 -111 11 -91 0 -110 -13
-110 -78 0 -102 32 -122 197 -122 l118 0 -94 -53 c-110 -60 -179 -126 -218
-206 -27 -55 -28 -61 -31 -261 -5 -239 3 -291 54 -351 31 -38 34 -46 34 -109
0 -127 6 -130 254 -130 184 0 185 0 215 26 l31 26 0 113 c0 109 1 113 25 129
22 14 99 16 751 16 668 0 728 -1 755 -17 l29 -17 0 -109 c0 -107 1 -109 29
-138 l29 -29 187 0 c208 0 235 6 254 61 6 18 11 58 11 90 0 48 4 63 25 84 49
53 56 103 53 342 -3 213 -4 219 -30 275 -38 81 -107 146 -224 209 l-99 54 138
5 c137 5 139 5 163 33 19 22 24 40 24 81 0 28 -5 57 -12 64 -8 8 -46 12 -106
12 -83 0 -100 -3 -144 -27 -30 -17 -58 -41 -72 -65 l-23 -39 -84 142 c-92 155
-150 218 -243 264 -110 54 -121 55 -661 54 -492 0 -501 0 -570 -23z m1127
-114 c86 -35 144 -94 220 -224 37 -62 70 -121 73 -131 14 -36 -92 -149 -281
-299 l-71 -57 -37 30 -36 31 102 83 c57 45 128 108 158 139 l54 56 -734 0
-734 0 54 -55 c30 -31 101 -93 157 -138 l102 -82 -26 -27 c-15 -16 -33 -28
-40 -28 -17 0 -198 145 -264 210 -26 26 -59 65 -74 88 l-27 42 72 122 c39 68
88 140 108 161 42 43 117 83 182 96 25 5 256 9 515 8 465 -2 471 -2 527 -25z
m-1491 -782 c84 -23 158 -101 166 -174 l6 -46 -144 0 c-230 1 -260 15 -267
124 -4 55 -1 67 17 85 18 18 33 21 104 21 45 0 98 -5 118 -10z m2101 -7 c14
-12 18 -31 18 -80 0 -57 -3 -68 -28 -93 -35 -35 -87 -42 -257 -38 l-120 3 -3
27 c-7 63 65 150 150 179 71 25 214 26 240 2z m-592 -133 l0 -40 -570 0 -570
0 0 40 0 40 570 0 570 0 0 -40z"/>
<path d="M1328 288 c-3 -46 -9 -91 -13 -100 -7 -17 18 -18 439 -18 l446 0 0
100 0 100 -434 0 -433 0 -5 -82z"/>
</g>
</svg>
